<svg xmlns="http://www.w3.org/2000/svg" viewBox="0 0 840 840" width="840" height="840" font-family="system-ui, -apple-system, 'Segoe UI', sans-serif">
	<style>
		:root {
			--surface: #fcfcfb; --ink: #0b0b0b; --secondary: #52514e; --muted: #898781;
			--grid: #e1e0d9; --axis: #c3c2b7;
			--g1: #2a78d6; --g2: #008300; --g3: #4a3aa7;
		}
		@media (prefers-color-scheme: dark) {
			:root {
				--surface: #1a1a19; --ink: #ffffff; --secondary: #c3c2b7; --muted: #898781;
				--grid: #2c2c2a; --axis: #383835;
				--g1: #3987e5; --g2: #008300; --g3: #9085e9;
			}
		}
		.surface { fill: var(--surface); }
		.grid { stroke: var(--grid); stroke-width: 1.50; }
		.axis { stroke: var(--axis); stroke-width: 1.50; }
		.tick { fill: var(--muted); font-size: 18.0px; font-variant-numeric: tabular-nums; }
		circle { fill: var(--ink); }
		.gamut { fill: none; stroke-width: 3.00; }
		.gamut.g1 { stroke: var(--g1); }
		.gamut.g2 { stroke: var(--g2); }
		.gamut.g3 { stroke: var(--g3); }
		.title { fill: var(--ink); font-size: 22.5px; font-weight: 600; }
		.atitle { fill: var(--secondary); font-size: 19.5px; font-style: italic; }
		.legend { fill: var(--secondary); font-size: 18.0px; }
	</style>
	<rect class="surface" x="0" y="0" width="840" height="840"/>
	<text class="title" x="78.0" y="39.0">Base colors in Oklab (a-b), gamuts overlaid</text>
	<clipPath id="abplot"><rect x="78" y="72" width="696" height="696"/></clipPath>
	<line class="grid" x1="136.0" y1="72" x2="136.0" y2="768"/><line class="grid" x1="78" y1="710.0" x2="774" y2="710.0"/><text class="tick" x="136.0" y="792.0" text-anchor="middle">-0.5</text><text class="tick" x="66.0" y="716.0" text-anchor="end">-0.5</text><line class="grid" x1="426.0" y1="72" x2="426.0" y2="768"/><line class="grid" x1="78" y1="420.0" x2="774" y2="420.0"/><line class="grid" x1="716.0" y1="72" x2="716.0" y2="768"/><line class="grid" x1="78" y1="130.0" x2="774" y2="130.0"/><text class="tick" x="716.0" y="792.0" text-anchor="middle">0.5</text><text class="tick" x="66.0" y="136.0" text-anchor="end">0.5</text>
	<line class="axis" x1="426.0" y1="72" x2="426.0" y2="768"/><line class="axis" x1="78" y1="420.0" x2="774" y2="420.0"/>
	<g clip-path="url(#abplot)" fill-opacity="0.28"><circle cx="446.9" cy="377.3" r="3.0"/><circle cx="348.9" cy="402.9" r="3.0"/><circle cx="443.6" cy="369.9" r="3.0"/><circle cx="331.4" cy="398.9" r="3.0"/><circle cx="418.0" cy="320.6" r="3.0"/><circle cx="452.3" cy="414.7" r="3.0"/><circle cx="395.6" cy="346.3" r="3.0"/><circle cx="428.4" cy="418.6" r="3.0"/><circle cx="425.2" cy="442.1" r="3.0"/><circle cx="417.3" cy="379.6" r="3.0"/><circle cx="459.9" cy="438.0" r="3.0"/><circle cx="412.4" cy="330.7" r="3.0"/><circle cx="484.7" cy="359.7" r="3.0"/><circle cx="401.0" cy="433.2" r="3.0"/><circle cx="414.6" cy="374.1" r="3.0"/><circle cx="363.0" cy="533.4" r="3.0"/><circle cx="361.8" cy="406.5" r="3.0"/><circle cx="412.8" cy="470.2" r="3.0"/><circle cx="377.2" cy="485.8" r="3.0"/><circle cx="387.6" cy="339.9" r="3.0"/><circle cx="354.4" cy="342.3" r="3.0"/><circle cx="495.1" cy="472.1" r="3.0"/><circle cx="493.8" cy="396.5" r="3.0"/><circle cx="405.4" cy="379.5" r="3.0"/><circle cx="477.3" cy="424.0" r="3.0"/><circle cx="396.5" cy="391.7" r="3.0"/><circle cx="415.8" cy="398.2" r="3.0"/><circle cx="417.8" cy="421.9" r="3.0"/><circle cx="412.9" cy="384.9" r="3.0"/><circle cx="417.5" cy="392.3" r="3.0"/><circle cx="427.6" cy="419.1" r="3.0"/><circle cx="452.1" cy="504.1" r="3.0"/><circle cx="441.4" cy="442.6" r="3.0"/><circle cx="427.7" cy="419.0" r="3.0"/><circle cx="320.7" cy="411.5" r="3.0"/><circle cx="506.8" cy="378.2" r="3.0"/><circle cx="479.0" cy="423.9" r="3.0"/><circle cx="373.3" cy="455.9" r="3.0"/><circle cx="402.5" cy="383.0" r="3.0"/><circle cx="478.9" cy="343.1" r="3.0"/><circle cx="428.4" cy="418.6" r="3.0"/><circle cx="454.3" cy="381.6" r="3.0"/><circle cx="406.4" cy="409.0" r="3.0"/><circle cx="448.2" cy="355.8" r="3.0"/><circle cx="427.5" cy="419.1" r="3.0"/><circle cx="332.0" cy="419.3" r="3.0"/><circle cx="407.5" cy="410.1" r="3.0"/><circle cx="461.9" cy="515.7" r="3.0"/><circle cx="403.4" cy="429.1" r="3.0"/><circle cx="497.0" cy="378.1" r="3.0"/><circle cx="428.3" cy="418.7" r="3.0"/><circle cx="490.6" cy="446.3" r="3.0"/><circle cx="505.5" cy="459.9" r="3.0"/><circle cx="390.0" cy="416.7" r="3.0"/><circle cx="414.4" cy="422.9" r="3.0"/><circle cx="403.8" cy="445.0" r="3.0"/><circle cx="387.8" cy="328.2" r="3.0"/><circle cx="427.7" cy="419.0" r="3.0"/><circle cx="409.6" cy="338.9" r="3.0"/><circle cx="428.3" cy="423.4" r="3.0"/><circle cx="507.6" cy="487.9" r="3.0"/><circle cx="427.5" cy="419.1" r="3.0"/><circle cx="425.7" cy="427.9" r="3.0"/><circle cx="468.3" cy="393.2" r="3.0"/><circle cx="453.6" cy="457.6" r="3.0"/><circle cx="465.2" cy="389.6" r="3.0"/><circle cx="424.6" cy="368.5" r="3.0"/><circle cx="435.8" cy="412.0" r="3.0"/><circle cx="491.1" cy="392.2" r="3.0"/><circle cx="487.0" cy="424.9" r="3.0"/><circle cx="443.8" cy="415.6" r="3.0"/><circle cx="438.5" cy="488.3" r="3.0"/><circle cx="368.1" cy="388.7" r="3.0"/><circle cx="474.2" cy="327.2" r="3.0"/><circle cx="428.0" cy="483.8" r="3.0"/><circle cx="412.1" cy="424.5" r="3.0"/><circle cx="377.0" cy="324.0" r="3.0"/><circle cx="329.6" cy="388.5" r="3.0"/><circle cx="465.6" cy="482.6" r="3.0"/><circle cx="377.9" cy="407.8" r="3.0"/><circle cx="444.6" cy="390.3" r="3.0"/><circle cx="360.3" cy="425.0" r="3.0"/><circle cx="379.7" cy="417.6" r="3.0"/><circle cx="428.5" cy="418.5" r="3.0"/><circle cx="358.3" cy="457.8" r="3.0"/><circle cx="424.4" cy="418.0" r="3.0"/><circle cx="414.8" cy="346.6" r="3.0"/><circle cx="325.4" cy="460.9" r="3.0"/><circle cx="466.5" cy="377.9" r="3.0"/><circle cx="371.3" cy="410.1" r="3.0"/><circle cx="381.3" cy="485.5" r="3.0"/><circle cx="482.6" cy="437.2" r="3.0"/><circle cx="398.6" cy="360.1" r="3.0"/><circle cx="427.1" cy="370.1" r="3.0"/><circle cx="477.9" cy="357.9" r="3.0"/><circle cx="439.1" cy="421.6" r="3.0"/><circle cx="340.5" cy="398.2" r="3.0"/><circle cx="395.8" cy="410.2" r="3.0"/><circle cx="428.3" cy="418.6" r="3.0"/><circle cx="430.7" cy="424.0" r="3.0"/><circle cx="423.4" cy="423.8" r="3.0"/><circle cx="428.1" cy="418.8" r="3.0"/><circle cx="427.7" cy="419.0" r="3.0"/><circle cx="462.4" cy="407.2" r="3.0"/><circle cx="402.6" cy="402.9" r="3.0"/><circle cx="471.8" cy="364.2" r="3.0"/><circle cx="537.2" cy="470.5" r="3.0"/><circle cx="446.9" cy="422.5" r="3.0"/><circle cx="315.0" cy="421.9" r="3.0"/><circle cx="444.3" cy="421.3" r="3.0"/><circle cx="428.3" cy="418.6" r="3.0"/><circle cx="478.3" cy="440.5" r="3.0"/><circle cx="413.1" cy="360.4" r="3.0"/><circle cx="427.8" cy="418.9" r="3.0"/><circle cx="352.6" cy="388.3" r="3.0"/><circle cx="411.0" cy="435.8" r="3.0"/><circle cx="415.2" cy="405.6" r="3.0"/><circle cx="428.2" cy="417.0" r="3.0"/><circle cx="410.0" cy="392.4" r="3.0"/><circle cx="451.1" cy="348.0" r="3.0"/><circle cx="354.8" cy="400.3" r="3.0"/><circle cx="474.7" cy="441.6" r="3.0"/><circle cx="409.4" cy="452.8" r="3.0"/><circle cx="439.7" cy="337.9" r="3.0"/><circle cx="413.5" cy="412.6" r="3.0"/><circle cx="435.0" cy="428.1" r="3.0"/><circle cx="421.2" cy="419.5" r="3.0"/><circle cx="423.6" cy="414.2" r="3.0"/><circle cx="427.5" cy="435.8" r="3.0"/><circle cx="479.8" cy="528.5" r="3.0"/><circle cx="460.8" cy="331.3" r="3.0"/><circle cx="392.1" cy="396.4" r="3.0"/><circle cx="426.9" cy="419.5" r="3.0"/><circle cx="435.7" cy="353.5" r="3.0"/><circle cx="491.7" cy="431.3" r="3.0"/><circle cx="399.3" cy="419.8" r="3.0"/><circle cx="566.1" cy="472.7" r="3.0"/><circle cx="427.7" cy="419.0" r="3.0"/><circle cx="376.5" cy="426.1" r="3.0"/><circle cx="521.8" cy="392.9" r="3.0"/><circle cx="430.9" cy="483.8" r="3.0"/><circle cx="446.3" cy="410.7" r="3.0"/><circle cx="432.1" cy="431.9" r="3.0"/><circle cx="417.5" cy="413.7" r="3.0"/><circle cx="467.2" cy="395.1" r="3.0"/><circle cx="473.2" cy="492.3" r="3.0"/><circle cx="428.0" cy="418.8" r="3.0"/><circle cx="373.8" cy="392.0" r="3.0"/><circle cx="428.0" cy="418.8" r="3.0"/><circle cx="420.6" cy="450.8" r="3.0"/><circle cx="427.1" cy="412.3" r="3.0"/><circle cx="392.4" cy="429.8" r="3.0"/><circle cx="421.5" cy="398.8" r="3.0"/><circle cx="396.2" cy="414.0" r="3.0"/><circle cx="386.9" cy="392.0" r="3.0"/><circle cx="439.8" cy="385.7" r="3.0"/><circle cx="434.7" cy="429.1" r="3.0"/><circle cx="362.0" cy="357.0" r="3.0"/><circle cx="450.1" cy="492.9" r="3.0"/><circle cx="479.2" cy="397.7" r="3.0"/><circle cx="427.2" cy="380.7" r="3.0"/><circle cx="447.0" cy="539.3" r="3.0"/><circle cx="348.2" cy="365.8" r="3.0"/><circle cx="348.7" cy="354.0" r="3.0"/><circle cx="417.2" cy="421.1" r="3.0"/><circle cx="372.3" cy="442.6" r="3.0"/><circle cx="403.8" cy="309.9" r="3.0"/><circle cx="408.4" cy="359.3" r="3.0"/><circle cx="381.6" cy="473.0" r="3.0"/><circle cx="427.9" cy="418.9" r="3.0"/><circle cx="425.8" cy="418.9" r="3.0"/><circle cx="380.3" cy="460.6" r="3.0"/><circle cx="507.3" cy="356.6" r="3.0"/><circle cx="295.7" cy="414.7" r="3.0"/><circle cx="389.3" cy="454.2" r="3.0"/><circle cx="463.4" cy="351.9" r="3.0"/><circle cx="447.3" cy="396.3" r="3.0"/><circle cx="473.5" cy="432.4" r="3.0"/><circle cx="453.4" cy="457.0" r="3.0"/><circle cx="428.1" cy="418.8" r="3.0"/><circle cx="409.9" cy="420.3" r="3.0"/><circle cx="452.8" cy="438.5" r="3.0"/><circle cx="427.4" cy="419.2" r="3.0"/><circle cx="434.9" cy="476.4" r="3.0"/><circle cx="427.6" cy="419.1" r="3.0"/><circle cx="419.4" cy="457.4" r="3.0"/><circle cx="486.6" cy="437.7" r="3.0"/><circle cx="455.7" cy="441.6" r="3.0"/><circle cx="350.6" cy="420.9" r="3.0"/><circle cx="502.9" cy="398.1" r="3.0"/><circle cx="427.6" cy="419.1" r="3.0"/><circle cx="428.0" cy="418.8" r="3.0"/><circle cx="405.5" cy="414.1" r="3.0"/><circle cx="311.8" cy="450.9" r="3.0"/><circle cx="363.7" cy="409.4" r="3.0"/><circle cx="433.9" cy="416.0" r="3.0"/><circle cx="379.3" cy="464.3" r="3.0"/><circle cx="419.7" cy="404.8" r="3.0"/><circle cx="427.6" cy="419.1" r="3.0"/><circle cx="427.3" cy="419.2" r="3.0"/><circle cx="433.9" cy="472.6" r="3.0"/><circle cx="393.4" cy="409.4" r="3.0"/><circle cx="457.3" cy="513.0" r="3.0"/><circle cx="374.7" cy="442.5" r="3.0"/><circle cx="429.9" cy="393.5" r="3.0"/><circle cx="441.7" cy="469.8" r="3.0"/><circle cx="523.6" cy="491.9" r="3.0"/><circle cx="399.6" cy="440.4" r="3.0"/><circle cx="504.4" cy="514.6" r="3.0"/><circle cx="438.5" cy="318.7" r="3.0"/><circle cx="415.8" cy="484.6" r="3.0"/><circle cx="301.4" cy="410.4" r="3.0"/><circle cx="440.1" cy="425.6" r="3.0"/><circle cx="513.3" cy="385.5" r="3.0"/><circle cx="398.3" cy="530.7" r="3.0"/><circle cx="442.0" cy="410.0" r="3.0"/><circle cx="516.9" cy="364.4" r="3.0"/><circle cx="394.0" cy="385.1" r="3.0"/><circle cx="463.8" cy="358.0" r="3.0"/><circle cx="384.3" cy="393.2" r="3.0"/><circle cx="447.3" cy="374.8" r="3.0"/><circle cx="425.5" cy="402.4" r="3.0"/><circle cx="437.4" cy="424.2" r="3.0"/><circle cx="348.2" cy="323.1" r="3.0"/><circle cx="427.5" cy="419.1" r="3.0"/><circle cx="515.3" cy="354.7" r="3.0"/><circle cx="422.4" cy="480.2" r="3.0"/><circle cx="458.9" cy="453.2" r="3.0"/><circle cx="428.1" cy="418.8" r="3.0"/><circle cx="427.7" cy="419.0" r="3.0"/><circle cx="415.0" cy="321.2" r="3.0"/><circle cx="476.7" cy="341.1" r="3.0"/><circle cx="376.8" cy="428.9" r="3.0"/><circle cx="417.2" cy="367.9" r="3.0"/><circle cx="374.6" cy="406.8" r="3.0"/><circle cx="396.6" cy="425.7" r="3.0"/><circle cx="384.8" cy="431.9" r="3.0"/><circle cx="410.4" cy="368.6" r="3.0"/><circle cx="548.5" cy="486.5" r="3.0"/><circle cx="431.7" cy="384.5" r="3.0"/><circle cx="451.9" cy="358.6" r="3.0"/><circle cx="471.8" cy="422.1" r="3.0"/><circle cx="457.1" cy="384.7" r="3.0"/><circle cx="381.7" cy="478.3" r="3.0"/><circle cx="445.3" cy="401.8" r="3.0"/><circle cx="401.2" cy="410.9" r="3.0"/><circle cx="424.5" cy="433.6" r="3.0"/><circle cx="428.2" cy="418.7" r="3.0"/><circle cx="545.8" cy="477.0" r="3.0"/><circle cx="416.0" cy="396.9" r="3.0"/><circle cx="345.2" cy="417.7" r="3.0"/><circle cx="403.1" cy="427.9" r="3.0"/><circle cx="449.4" cy="390.5" r="3.0"/><circle cx="484.9" cy="369.8" r="3.0"/><circle cx="427.8" cy="421.9" r="3.0"/><circle cx="555.8" cy="504.1" r="3.0"/><circle cx="426.2" cy="357.4" r="3.0"/><circle cx="408.5" cy="460.1" r="3.0"/><circle cx="340.6" cy="495.1" r="3.0"/><circle cx="402.3" cy="415.6" r="3.0"/><circle cx="449.6" cy="391.9" r="3.0"/><circle cx="401.0" cy="447.5" r="3.0"/><circle cx="432.3" cy="328.9" r="3.0"/><circle cx="482.1" cy="470.5" r="3.0"/><circle cx="461.7" cy="460.3" r="3.0"/><circle cx="430.0" cy="420.1" r="3.0"/><circle cx="434.4" cy="415.8" r="3.0"/><circle cx="381.8" cy="400.0" r="3.0"/><circle cx="438.8" cy="492.9" r="3.0"/><circle cx="425.4" cy="415.8" r="3.0"/><circle cx="387.7" cy="411.8" r="3.0"/><circle cx="447.6" cy="430.2" r="3.0"/><circle cx="500.5" cy="400.7" r="3.0"/><circle cx="427.9" cy="418.4" r="3.0"/><circle cx="349.8" cy="372.4" r="3.0"/><circle cx="438.3" cy="468.5" r="3.0"/><circle cx="386.2" cy="472.9" r="3.0"/><circle cx="453.4" cy="454.4" r="3.0"/><circle cx="414.5" cy="514.0" r="3.0"/><circle cx="355.1" cy="364.5" r="3.0"/><circle cx="458.4" cy="323.0" r="3.0"/><circle cx="549.4" cy="406.5" r="3.0"/><circle cx="373.3" cy="366.4" r="3.0"/><circle cx="396.0" cy="428.1" r="3.0"/><circle cx="444.3" cy="461.7" r="3.0"/><circle cx="414.3" cy="423.8" r="3.0"/><circle cx="383.3" cy="318.3" r="3.0"/><circle cx="324.6" cy="341.6" r="3.0"/><circle cx="482.2" cy="488.8" r="3.0"/><circle cx="405.0" cy="419.9" r="3.0"/><circle cx="427.6" cy="419.1" r="3.0"/><circle cx="524.5" cy="439.5" r="3.0"/><circle cx="427.9" cy="418.9" r="3.0"/><circle cx="400.6" cy="316.0" r="3.0"/><circle cx="436.0" cy="361.8" r="3.0"/><circle cx="445.9" cy="375.2" r="3.0"/><circle cx="471.1" cy="423.3" r="3.0"/><circle cx="401.4" cy="446.0" r="3.0"/><circle cx="428.3" cy="418.7" r="3.0"/><circle cx="439.2" cy="340.2" r="3.0"/><circle cx="484.0" cy="384.0" r="3.0"/><circle cx="410.9" cy="412.5" r="3.0"/><circle cx="434.4" cy="408.4" r="3.0"/><circle cx="427.1" cy="419.4" r="3.0"/><circle cx="516.4" cy="472.0" r="3.0"/><circle cx="432.0" cy="458.1" r="3.0"/><circle cx="363.8" cy="445.0" r="3.0"/><circle cx="427.4" cy="419.2" r="3.0"/><circle cx="502.5" cy="393.1" r="3.0"/><circle cx="428.1" cy="418.8" r="3.0"/><circle cx="413.3" cy="416.5" r="3.0"/><circle cx="437.7" cy="392.6" r="3.0"/><circle cx="405.8" cy="426.1" r="3.0"/><circle cx="533.4" cy="435.6" r="3.0"/><circle cx="494.8" cy="370.4" r="3.0"/><circle cx="350.0" cy="384.8" r="3.0"/><circle cx="341.8" cy="431.1" r="3.0"/><circle cx="514.5" cy="415.3" r="3.0"/><circle cx="458.4" cy="370.9" r="3.0"/><circle cx="519.6" cy="473.0" r="3.0"/><circle cx="416.3" cy="428.5" r="3.0"/><circle cx="469.1" cy="364.7" r="3.0"/><circle cx="481.5" cy="427.4" r="3.0"/><circle cx="428.4" cy="418.6" r="3.0"/><circle cx="400.0" cy="420.0" r="3.0"/><circle cx="387.2" cy="503.4" r="3.0"/><circle cx="316.5" cy="405.7" r="3.0"/><circle cx="375.6" cy="434.0" r="3.0"/><circle cx="425.1" cy="339.0" r="3.0"/><circle cx="435.6" cy="430.9" r="3.0"/><circle cx="502.1" cy="431.8" r="3.0"/><circle cx="454.8" cy="441.8" r="3.0"/><circle cx="287.1" cy="449.1" r="3.0"/><circle cx="404.5" cy="390.4" r="3.0"/><circle cx="428.2" cy="418.7" r="3.0"/><circle cx="448.9" cy="444.5" r="3.0"/><circle cx="416.3" cy="350.5" r="3.0"/><circle cx="395.3" cy="349.0" r="3.0"/><circle cx="446.7" cy="378.0" r="3.0"/><circle cx="358.9" cy="337.7" r="3.0"/><circle cx="433.6" cy="395.4" r="3.0"/><circle cx="333.7" cy="387.8" r="3.0"/><circle cx="409.7" cy="438.5" r="3.0"/><circle cx="458.2" cy="500.1" r="3.0"/><circle cx="371.4" cy="512.5" r="3.0"/><circle cx="482.1" cy="459.8" r="3.0"/><circle cx="431.9" cy="509.2" r="3.0"/><circle cx="426.9" cy="417.1" r="3.0"/><circle cx="416.4" cy="448.8" r="3.0"/><circle cx="456.9" cy="439.4" r="3.0"/><circle cx="404.5" cy="398.0" r="3.0"/><circle cx="428.0" cy="418.8" r="3.0"/><circle cx="445.7" cy="430.8" r="3.0"/><circle cx="368.9" cy="510.1" r="3.0"/><circle cx="400.7" cy="469.1" r="3.0"/><circle cx="449.3" cy="399.8" r="3.0"/><circle cx="412.4" cy="461.9" r="3.0"/><circle cx="418.7" cy="445.4" r="3.0"/><circle cx="464.2" cy="494.8" r="3.0"/><circle cx="475.7" cy="410.4" r="3.0"/><circle cx="438.8" cy="435.3" r="3.0"/><circle cx="427.6" cy="419.3" r="3.0"/><circle cx="414.9" cy="384.7" r="3.0"/><circle cx="466.8" cy="420.9" r="3.0"/><circle cx="386.4" cy="394.3" r="3.0"/><circle cx="453.4" cy="430.1" r="3.0"/><circle cx="355.3" cy="419.2" r="3.0"/><circle cx="460.2" cy="474.0" r="3.0"/><circle cx="372.5" cy="323.4" r="3.0"/><circle cx="529.2" cy="437.4" r="3.0"/><circle cx="399.5" cy="401.3" r="3.0"/><circle cx="489.3" cy="350.2" r="3.0"/><circle cx="427.7" cy="419.0" r="3.0"/><circle cx="455.1" cy="422.8" r="3.0"/><circle cx="428.3" cy="418.7" r="3.0"/><circle cx="356.0" cy="458.6" r="3.0"/><circle cx="360.0" cy="370.3" r="3.0"/><circle cx="401.5" cy="422.8" r="3.0"/><circle cx="439.7" cy="356.6" r="3.0"/><circle cx="428.3" cy="418.7" r="3.0"/><circle cx="486.4" cy="380.9" r="3.0"/><circle cx="355.5" cy="468.4" r="3.0"/><circle cx="420.8" cy="448.0" r="3.0"/><circle cx="509.6" cy="387.0" r="3.0"/><circle cx="380.2" cy="504.1" r="3.0"/><circle cx="427.4" cy="419.2" r="3.0"/><circle cx="406.4" cy="371.2" r="3.0"/><circle cx="428.1" cy="418.8" r="3.0"/><circle cx="455.0" cy="406.6" r="3.0"/><circle cx="413.2" cy="421.0" r="3.0"/><circle cx="507.0" cy="422.3" r="3.0"/><circle cx="428.0" cy="418.8" r="3.0"/><circle cx="446.1" cy="385.7" r="3.0"/><circle cx="427.7" cy="419.0" r="3.0"/><circle cx="427.5" cy="426.1" r="3.0"/><circle cx="397.6" cy="322.0" r="3.0"/><circle cx="435.8" cy="457.5" r="3.0"/><circle cx="429.5" cy="350.8" r="3.0"/><circle cx="441.3" cy="414.2" r="3.0"/><circle cx="370.6" cy="371.5" r="3.0"/><circle cx="406.5" cy="442.8" r="3.0"/><circle cx="483.3" cy="415.8" r="3.0"/><circle cx="418.7" cy="512.6" r="3.0"/><circle cx="413.4" cy="396.4" r="3.0"/><circle cx="428.5" cy="419.0" r="3.0"/><circle cx="439.6" cy="456.7" r="3.0"/><circle cx="428.0" cy="418.8" r="3.0"/><circle cx="400.3" cy="471.3" r="3.0"/><circle cx="485.8" cy="393.6" r="3.0"/><circle cx="371.9" cy="544.1" r="3.0"/><circle cx="426.0" cy="420.0" r="3.0"/><circle cx="436.1" cy="419.7" r="3.0"/><circle cx="428.0" cy="431.1" r="3.0"/><circle cx="427.2" cy="419.3" r="3.0"/><circle cx="391.0" cy="353.7" r="3.0"/><circle cx="382.1" cy="491.1" r="3.0"/><circle cx="428.1" cy="418.8" r="3.0"/><circle cx="438.4" cy="431.2" r="3.0"/><circle cx="492.8" cy="371.0" r="3.0"/><circle cx="457.6" cy="390.5" r="3.0"/><circle cx="408.3" cy="389.2" r="3.0"/><circle cx="386.4" cy="338.4" r="3.0"/><circle cx="518.6" cy="402.7" r="3.0"/><circle cx="447.1" cy="356.7" r="3.0"/><circle cx="495.8" cy="448.1" r="3.0"/><circle cx="414.2" cy="420.0" r="3.0"/><circle cx="491.8" cy="367.0" r="3.0"/><circle cx="464.2" cy="383.4" r="3.0"/><circle cx="506.0" cy="379.1" r="3.0"/><circle cx="428.0" cy="418.8" r="3.0"/><circle cx="454.9" cy="423.8" r="3.0"/><circle cx="423.0" cy="434.9" r="3.0"/><circle cx="421.0" cy="460.1" r="3.0"/><circle cx="491.1" cy="430.7" r="3.0"/><circle cx="417.5" cy="408.8" r="3.0"/><circle cx="319.7" cy="501.9" r="3.0"/><circle cx="358.6" cy="349.4" r="3.0"/><circle cx="460.1" cy="431.9" r="3.0"/><circle cx="481.1" cy="472.6" r="3.0"/><circle cx="415.2" cy="447.2" r="3.0"/><circle cx="431.4" cy="426.0" r="3.0"/><circle cx="451.7" cy="341.9" r="3.0"/><circle cx="416.8" cy="498.1" r="3.0"/><circle cx="424.0" cy="421.0" r="3.0"/><circle cx="469.1" cy="397.8" r="3.0"/><circle cx="433.7" cy="331.9" r="3.0"/><circle cx="341.8" cy="393.3" r="3.0"/><circle cx="491.2" cy="342.3" r="3.0"/><circle cx="428.0" cy="418.8" r="3.0"/><circle cx="427.5" cy="419.1" r="3.0"/><circle cx="440.6" cy="424.9" r="3.0"/><circle cx="405.8" cy="458.6" r="3.0"/><circle cx="380.6" cy="414.2" r="3.0"/><circle cx="383.8" cy="464.2" r="3.0"/><circle cx="358.1" cy="462.8" r="3.0"/><circle cx="402.6" cy="395.7" r="3.0"/><circle cx="431.4" cy="415.7" r="3.0"/><circle cx="427.5" cy="421.9" r="3.0"/><circle cx="427.3" cy="371.6" r="3.0"/><circle cx="427.7" cy="419.0" r="3.0"/><circle cx="414.8" cy="406.4" r="3.0"/><circle cx="428.0" cy="418.8" r="3.0"/><circle cx="477.6" cy="432.7" r="3.0"/><circle cx="427.2" cy="419.0" r="3.0"/><circle cx="405.4" cy="354.9" r="3.0"/><circle cx="428.2" cy="418.7" r="3.0"/><circle cx="535.5" cy="384.3" r="3.0"/><circle cx="379.9" cy="445.0" r="3.0"/><circle cx="378.9" cy="443.8" r="3.0"/><circle cx="479.6" cy="400.3" r="3.0"/><circle cx="482.0" cy="385.6" r="3.0"/><circle cx="477.1" cy="426.7" r="3.0"/><circle cx="423.9" cy="414.3" r="3.0"/><circle cx="418.1" cy="408.4" r="3.0"/><circle cx="438.9" cy="423.8" r="3.0"/><circle cx="480.3" cy="354.5" r="3.0"/><circle cx="409.7" cy="424.1" r="3.0"/><circle cx="433.1" cy="441.3" r="3.0"/><circle cx="411.0" cy="422.1" r="3.0"/><circle cx="442.8" cy="455.7" r="3.0"/><circle cx="401.7" cy="409.4" r="3.0"/><circle cx="418.2" cy="402.2" r="3.0"/><circle cx="421.9" cy="414.6" r="3.0"/><circle cx="402.3" cy="345.1" r="3.0"/><circle cx="389.3" cy="338.4" r="3.0"/><circle cx="366.6" cy="374.3" r="3.0"/><circle cx="428.1" cy="418.8" r="3.0"/><circle cx="422.0" cy="425.7" r="3.0"/><circle cx="428.4" cy="418.6" r="3.0"/><circle cx="373.5" cy="431.9" r="3.0"/><circle cx="427.7" cy="419.0" r="3.0"/><circle cx="329.7" cy="310.1" r="3.0"/><circle cx="430.4" cy="458.2" r="3.0"/><circle cx="428.3" cy="415.4" r="3.0"/><circle cx="401.7" cy="401.9" r="3.0"/><circle cx="427.9" cy="418.9" r="3.0"/><circle cx="424.3" cy="429.9" r="3.0"/><circle cx="525.7" cy="508.8" r="3.0"/><circle cx="451.8" cy="405.9" r="3.0"/><circle cx="434.0" cy="443.6" r="3.0"/><circle cx="424.4" cy="370.5" r="3.0"/><circle cx="415.8" cy="431.9" r="3.0"/><circle cx="427.7" cy="419.0" r="3.0"/><circle cx="408.5" cy="391.0" r="3.0"/><circle cx="487.7" cy="412.8" r="3.0"/><circle cx="389.2" cy="506.8" r="3.0"/><circle cx="470.2" cy="411.9" r="3.0"/><circle cx="431.9" cy="425.4" r="3.0"/><circle cx="408.3" cy="440.8" r="3.0"/><circle cx="424.3" cy="444.4" r="3.0"/><circle cx="337.6" cy="463.9" r="3.0"/><circle cx="447.7" cy="394.2" r="3.0"/><circle cx="399.1" cy="398.6" r="3.0"/><circle cx="487.6" cy="386.0" r="3.0"/><circle cx="427.9" cy="418.9" r="3.0"/><circle cx="428.5" cy="418.5" r="3.0"/><circle cx="459.0" cy="395.5" r="3.0"/><circle cx="416.4" cy="434.1" r="3.0"/><circle cx="486.2" cy="335.5" r="3.0"/><circle cx="422.3" cy="394.9" r="3.0"/><circle cx="419.7" cy="421.2" r="3.0"/><circle cx="453.7" cy="357.0" r="3.0"/><circle cx="391.0" cy="412.6" r="3.0"/><circle cx="427.5" cy="419.2" r="3.0"/><circle cx="427.9" cy="418.9" r="3.0"/><circle cx="427.4" cy="419.2" r="3.0"/><circle cx="418.1" cy="403.2" r="3.0"/><circle cx="402.5" cy="419.0" r="3.0"/><circle cx="298.1" cy="495.5" r="3.0"/><circle cx="467.5" cy="401.4" r="3.0"/><circle cx="427.8" cy="419.0" r="3.0"/><circle cx="343.1" cy="465.6" r="3.0"/><circle cx="406.2" cy="427.7" r="3.0"/><circle cx="393.9" cy="422.2" r="3.0"/><circle cx="386.7" cy="353.5" r="3.0"/><circle cx="336.7" cy="498.2" r="3.0"/><circle cx="431.1" cy="373.8" r="3.0"/><circle cx="453.0" cy="340.0" r="3.0"/><circle cx="423.4" cy="422.3" r="3.0"/><circle cx="413.6" cy="429.1" r="3.0"/><circle cx="440.3" cy="451.0" r="3.0"/><circle cx="344.8" cy="445.0" r="3.0"/><circle cx="394.6" cy="490.1" r="3.0"/><circle cx="436.4" cy="368.3" r="3.0"/><circle cx="345.4" cy="327.9" r="3.0"/><circle cx="521.6" cy="446.6" r="3.0"/><circle cx="419.7" cy="439.7" r="3.0"/><circle cx="473.1" cy="395.5" r="3.0"/><circle cx="474.4" cy="457.6" r="3.0"/><circle cx="467.9" cy="364.8" r="3.0"/><circle cx="459.3" cy="375.3" r="3.0"/><circle cx="427.0" cy="418.3" r="3.0"/><circle cx="319.7" cy="414.1" r="3.0"/><circle cx="466.4" cy="410.4" r="3.0"/><circle cx="364.5" cy="399.5" r="3.0"/><circle cx="395.2" cy="436.9" r="3.0"/><circle cx="457.6" cy="455.1" r="3.0"/><circle cx="494.4" cy="392.0" r="3.0"/><circle cx="435.5" cy="428.4" r="3.0"/><circle cx="411.8" cy="415.5" r="3.0"/><circle cx="418.0" cy="440.8" r="3.0"/><circle cx="401.2" cy="501.8" r="3.0"/><circle cx="448.5" cy="425.8" r="3.0"/><circle cx="415.7" cy="419.3" r="3.0"/><circle cx="429.3" cy="419.7" r="3.0"/><circle cx="428.7" cy="417.5" r="3.0"/><circle cx="370.3" cy="365.6" r="3.0"/><circle cx="413.4" cy="417.3" r="3.0"/><circle cx="354.2" cy="488.3" r="3.0"/><circle cx="402.0" cy="352.6" r="3.0"/><circle cx="386.8" cy="355.5" r="3.0"/><circle cx="383.6" cy="407.7" r="3.0"/><circle cx="417.3" cy="399.8" r="3.0"/><circle cx="414.6" cy="430.1" r="3.0"/><circle cx="458.4" cy="396.5" r="3.0"/><circle cx="378.2" cy="441.2" r="3.0"/><circle cx="386.8" cy="382.6" r="3.0"/><circle cx="418.8" cy="377.6" r="3.0"/><circle cx="428.3" cy="418.6" r="3.0"/><circle cx="459.1" cy="359.6" r="3.0"/><circle cx="340.5" cy="452.2" r="3.0"/><circle cx="392.5" cy="429.5" r="3.0"/><circle cx="427.9" cy="418.9" r="3.0"/><circle cx="412.6" cy="339.9" r="3.0"/><circle cx="546.4" cy="367.4" r="3.0"/><circle cx="446.9" cy="447.4" r="3.0"/><circle cx="312.6" cy="419.3" r="3.0"/><circle cx="470.2" cy="397.1" r="3.0"/><circle cx="390.2" cy="372.2" r="3.0"/><circle cx="417.6" cy="355.3" r="3.0"/><circle cx="422.8" cy="413.7" r="3.0"/><circle cx="476.2" cy="381.5" r="3.0"/><circle cx="503.1" cy="483.0" r="3.0"/><circle cx="442.1" cy="420.6" r="3.0"/><circle cx="447.1" cy="432.6" r="3.0"/><circle cx="351.5" cy="394.7" r="3.0"/><circle cx="386.4" cy="412.3" r="3.0"/><circle cx="446.1" cy="406.4" r="3.0"/><circle cx="470.4" cy="423.6" r="3.0"/><circle cx="348.3" cy="437.8" r="3.0"/><circle cx="396.1" cy="399.0" r="3.0"/><circle cx="395.1" cy="445.1" r="3.0"/><circle cx="423.7" cy="365.8" r="3.0"/><circle cx="445.1" cy="371.7" r="3.0"/><circle cx="456.3" cy="424.4" r="3.0"/><circle cx="279.9" cy="447.1" r="3.0"/><circle cx="427.5" cy="419.1" r="3.0"/><circle cx="428.4" cy="418.6" r="3.0"/><circle cx="492.8" cy="427.4" r="3.0"/><circle cx="407.4" cy="417.6" r="3.0"/><circle cx="501.7" cy="476.0" r="3.0"/><circle cx="463.3" cy="425.2" r="3.0"/><circle cx="461.1" cy="438.1" r="3.0"/><circle cx="427.7" cy="419.0" r="3.0"/><circle cx="427.3" cy="419.2" r="3.0"/><circle cx="498.1" cy="496.0" r="3.0"/><circle cx="421.3" cy="462.8" r="3.0"/><circle cx="447.6" cy="434.5" r="3.0"/><circle cx="386.5" cy="484.0" r="3.0"/><circle cx="438.3" cy="381.2" r="3.0"/><circle cx="436.9" cy="409.6" r="3.0"/><circle cx="428.0" cy="418.8" r="3.0"/><circle cx="438.6" cy="391.7" r="3.0"/><circle cx="437.4" cy="422.5" r="3.0"/><circle cx="427.3" cy="418.7" r="3.0"/><circle cx="418.1" cy="409.5" r="3.0"/><circle cx="337.8" cy="434.7" r="3.0"/><circle cx="555.1" cy="431.0" r="3.0"/><circle cx="437.4" cy="413.0" r="3.0"/><circle cx="401.1" cy="416.9" r="3.0"/><circle cx="361.0" cy="357.5" r="3.0"/><circle cx="390.2" cy="433.0" r="3.0"/><circle cx="427.8" cy="418.9" r="3.0"/><circle cx="412.1" cy="441.8" r="3.0"/><circle cx="494.1" cy="433.2" r="3.0"/><circle cx="432.2" cy="391.9" r="3.0"/><circle cx="429.7" cy="432.9" r="3.0"/><circle cx="373.4" cy="341.5" r="3.0"/><circle cx="414.7" cy="408.6" r="3.0"/><circle cx="484.7" cy="462.0" r="3.0"/><circle cx="427.5" cy="419.6" r="3.0"/><circle cx="428.4" cy="418.6" r="3.0"/><circle cx="428.8" cy="448.0" r="3.0"/><circle cx="426.9" cy="420.2" r="3.0"/><circle cx="409.4" cy="438.3" r="3.0"/><circle cx="274.3" cy="354.2" r="3.0"/><circle cx="433.7" cy="385.5" r="3.0"/><circle cx="440.6" cy="334.5" r="3.0"/><circle cx="381.7" cy="445.5" r="3.0"/><circle cx="460.8" cy="375.5" r="3.0"/><circle cx="426.3" cy="397.1" r="3.0"/><circle cx="267.7" cy="371.0" r="3.0"/><circle cx="401.6" cy="428.8" r="3.0"/><circle cx="427.8" cy="419.0" r="3.0"/><circle cx="432.8" cy="418.2" r="3.0"/><circle cx="432.7" cy="432.4" r="3.0"/><circle cx="454.4" cy="366.0" r="3.0"/><circle cx="428.3" cy="418.7" r="3.0"/><circle cx="370.5" cy="471.8" r="3.0"/><circle cx="406.6" cy="449.8" r="3.0"/><circle cx="339.8" cy="508.5" r="3.0"/><circle cx="533.3" cy="433.7" r="3.0"/><circle cx="509.1" cy="436.0" r="3.0"/><circle cx="402.0" cy="456.1" r="3.0"/><circle cx="408.8" cy="369.0" r="3.0"/><circle cx="391.5" cy="418.3" r="3.0"/><circle cx="408.0" cy="396.5" r="3.0"/><circle cx="344.0" cy="439.6" r="3.0"/><circle cx="411.2" cy="396.0" r="3.0"/><circle cx="435.7" cy="423.7" r="3.0"/><circle cx="428.0" cy="503.8" r="3.0"/><circle cx="428.9" cy="466.0" r="3.0"/><circle cx="292.7" cy="367.7" r="3.0"/><circle cx="575.4" cy="447.0" r="3.0"/><circle cx="390.9" cy="426.8" r="3.0"/><circle cx="445.7" cy="386.1" r="3.0"/><circle cx="406.2" cy="402.5" r="3.0"/><circle cx="503.7" cy="504.4" r="3.0"/><circle cx="519.1" cy="380.7" r="3.0"/><circle cx="407.3" cy="413.6" r="3.0"/><circle cx="416.9" cy="327.4" r="3.0"/><circle cx="450.0" cy="393.9" r="3.0"/><circle cx="434.0" cy="362.0" r="3.0"/><circle cx="434.1" cy="452.9" r="3.0"/><circle cx="404.3" cy="363.0" r="3.0"/><circle cx="462.2" cy="473.4" r="3.0"/><circle cx="427.7" cy="419.0" r="3.0"/><circle cx="452.0" cy="425.8" r="3.0"/><circle cx="399.0" cy="383.9" r="3.0"/><circle cx="438.7" cy="475.6" r="3.0"/><circle cx="403.6" cy="375.0" r="3.0"/><circle cx="427.7" cy="419.0" r="3.0"/><circle cx="521.4" cy="411.2" r="3.0"/><circle cx="428.1" cy="418.8" r="3.0"/><circle cx="427.5" cy="397.0" r="3.0"/><circle cx="455.4" cy="371.0" r="3.0"/><circle cx="356.6" cy="450.7" r="3.0"/><circle cx="353.0" cy="399.2" r="3.0"/><circle cx="388.6" cy="421.5" r="3.0"/><circle cx="432.1" cy="342.8" r="3.0"/><circle cx="383.8" cy="366.7" r="3.0"/><circle cx="428.2" cy="418.7" r="3.0"/><circle cx="308.3" cy="413.0" r="3.0"/><circle cx="393.1" cy="459.9" r="3.0"/><circle cx="345.5" cy="383.3" r="3.0"/><circle cx="490.6" cy="427.0" r="3.0"/><circle cx="427.9" cy="418.9" r="3.0"/><circle cx="401.6" cy="325.7" r="3.0"/><circle cx="451.5" cy="368.9" r="3.0"/><circle cx="427.9" cy="418.9" r="3.0"/><circle cx="461.8" cy="440.9" r="3.0"/><circle cx="394.0" cy="390.6" r="3.0"/><circle cx="423.0" cy="418.2" r="3.0"/><circle cx="418.3" cy="407.9" r="3.0"/><circle cx="466.5" cy="429.8" r="3.0"/><circle cx="484.4" cy="516.8" r="3.0"/><circle cx="423.7" cy="423.0" r="3.0"/><circle cx="466.2" cy="478.6" r="3.0"/><circle cx="421.7" cy="392.5" r="3.0"/><circle cx="427.9" cy="418.9" r="3.0"/><circle cx="357.8" cy="415.4" r="3.0"/><circle cx="379.6" cy="414.6" r="3.0"/><circle cx="427.2" cy="419.3" r="3.0"/><circle cx="442.0" cy="436.9" r="3.0"/><circle cx="486.2" cy="392.0" r="3.0"/><circle cx="304.9" cy="388.0" r="3.0"/><circle cx="522.2" cy="415.4" r="3.0"/><circle cx="437.9" cy="340.7" r="3.0"/><circle cx="438.2" cy="432.8" r="3.0"/><circle cx="375.2" cy="439.9" r="3.0"/><circle cx="432.5" cy="426.2" r="3.0"/><circle cx="395.7" cy="432.3" r="3.0"/><circle cx="442.2" cy="410.8" r="3.0"/><circle cx="345.5" cy="414.6" r="3.0"/><circle cx="457.0" cy="402.3" r="3.0"/><circle cx="308.7" cy="393.0" r="3.0"/><circle cx="415.2" cy="362.2" r="3.0"/><circle cx="411.2" cy="486.2" r="3.0"/><circle cx="352.5" cy="374.8" r="3.0"/><circle cx="515.1" cy="465.8" r="3.0"/><circle cx="428.1" cy="418.8" r="3.0"/><circle cx="389.4" cy="407.4" r="3.0"/><circle cx="465.4" cy="433.6" r="3.0"/><circle cx="424.9" cy="494.9" r="3.0"/><circle cx="454.6" cy="318.4" r="3.0"/><circle cx="521.8" cy="416.5" r="3.0"/><circle cx="427.5" cy="419.0" r="3.0"/><circle cx="454.9" cy="378.1" r="3.0"/><circle cx="466.9" cy="353.8" r="3.0"/><circle cx="333.4" cy="430.1" r="3.0"/><circle cx="368.1" cy="424.0" r="3.0"/><circle cx="411.9" cy="357.1" r="3.0"/><circle cx="443.7" cy="461.1" r="3.0"/><circle cx="460.1" cy="399.7" r="3.0"/><circle cx="456.9" cy="410.8" r="3.0"/><circle cx="428.3" cy="418.6" r="3.0"/><circle cx="460.9" cy="426.1" r="3.0"/><circle cx="447.7" cy="441.7" r="3.0"/><circle cx="348.7" cy="473.4" r="3.0"/><circle cx="593.4" cy="457.5" r="3.0"/><circle cx="380.8" cy="466.2" r="3.0"/><circle cx="421.3" cy="415.1" r="3.0"/><circle cx="471.7" cy="424.7" r="3.0"/><circle cx="465.9" cy="426.7" r="3.0"/><circle cx="409.7" cy="436.5" r="3.0"/><circle cx="426.0" cy="420.0" r="3.0"/><circle cx="427.2" cy="417.7" r="3.0"/><circle cx="358.7" cy="516.9" r="3.0"/><circle cx="435.9" cy="440.3" r="3.0"/><circle cx="362.0" cy="324.0" r="3.0"/><circle cx="376.3" cy="369.7" r="3.0"/><circle cx="437.6" cy="437.4" r="3.0"/><circle cx="461.7" cy="365.9" r="3.0"/><circle cx="429.3" cy="409.4" r="3.0"/><circle cx="448.3" cy="401.8" r="3.0"/><circle cx="327.7" cy="431.4" r="3.0"/><circle cx="554.1" cy="399.6" r="3.0"/><circle cx="483.8" cy="364.6" r="3.0"/><circle cx="393.1" cy="364.6" r="3.0"/><circle cx="467.8" cy="404.2" r="3.0"/><circle cx="389.4" cy="381.0" r="3.0"/><circle cx="440.1" cy="443.5" r="3.0"/><circle cx="439.8" cy="484.8" r="3.0"/><circle cx="426.6" cy="420.1" r="3.0"/><circle cx="422.1" cy="430.4" r="3.0"/><circle cx="379.2" cy="442.1" r="3.0"/><circle cx="432.8" cy="375.6" r="3.0"/><circle cx="429.1" cy="420.9" r="3.0"/><circle cx="397.2" cy="375.7" r="3.0"/><circle cx="557.5" cy="455.4" r="3.0"/><circle cx="417.8" cy="466.1" r="3.0"/><circle cx="316.5" cy="453.8" r="3.0"/><circle cx="390.0" cy="384.5" r="3.0"/><circle cx="390.3" cy="427.3" r="3.0"/><circle cx="473.3" cy="339.2" r="3.0"/><circle cx="366.1" cy="392.6" r="3.0"/><circle cx="539.1" cy="425.8" r="3.0"/><circle cx="428.9" cy="399.3" r="3.0"/><circle cx="418.9" cy="453.6" r="3.0"/><circle cx="425.1" cy="461.8" r="3.0"/><circle cx="471.1" cy="431.1" r="3.0"/><circle cx="448.6" cy="370.4" r="3.0"/><circle cx="320.4" cy="453.1" r="3.0"/><circle cx="376.0" cy="428.4" r="3.0"/><circle cx="400.9" cy="478.3" r="3.0"/><circle cx="366.7" cy="488.0" r="3.0"/><circle cx="432.4" cy="433.7" r="3.0"/><circle cx="531.6" cy="432.1" r="3.0"/><circle cx="449.4" cy="314.2" r="3.0"/><circle cx="431.1" cy="436.7" r="3.0"/><circle cx="507.4" cy="375.4" r="3.0"/><circle cx="374.7" cy="447.6" r="3.0"/><circle cx="486.0" cy="502.4" r="3.0"/><circle cx="486.6" cy="383.4" r="3.0"/><circle cx="360.6" cy="389.6" r="3.0"/><circle cx="428.0" cy="418.8" r="3.0"/><circle cx="429.2" cy="420.2" r="3.0"/><circle cx="461.3" cy="372.2" r="3.0"/><circle cx="427.3" cy="467.1" r="3.0"/><circle cx="443.9" cy="377.0" r="3.0"/><circle cx="487.9" cy="347.3" r="3.0"/><circle cx="464.7" cy="399.0" r="3.0"/><circle cx="437.3" cy="329.8" r="3.0"/><circle cx="496.9" cy="372.8" r="3.0"/><circle cx="453.1" cy="452.4" r="3.0"/><circle cx="411.3" cy="487.7" r="3.0"/><circle cx="466.1" cy="434.7" r="3.0"/><circle cx="427.8" cy="418.9" r="3.0"/><circle cx="461.8" cy="450.2" r="3.0"/><circle cx="290.7" cy="445.2" r="3.0"/><circle cx="441.9" cy="465.3" r="3.0"/><circle cx="406.9" cy="389.9" r="3.0"/><circle cx="412.5" cy="422.2" r="3.0"/><circle cx="433.3" cy="425.6" r="3.0"/><circle cx="427.8" cy="419.0" r="3.0"/><circle cx="428.0" cy="418.8" r="3.0"/><circle cx="445.5" cy="422.8" r="3.0"/><circle cx="431.8" cy="419.1" r="3.0"/><circle cx="414.9" cy="460.6" r="3.0"/><circle cx="355.4" cy="453.5" r="3.0"/><circle cx="368.0" cy="411.8" r="3.0"/><circle cx="421.6" cy="391.9" r="3.0"/><circle cx="464.6" cy="314.1" r="3.0"/><circle cx="392.5" cy="392.4" r="3.0"/><circle cx="442.8" cy="455.1" r="3.0"/><circle cx="371.4" cy="408.7" r="3.0"/><circle cx="427.8" cy="419.0" r="3.0"/><circle cx="484.8" cy="430.3" r="3.0"/><circle cx="449.3" cy="456.4" r="3.0"/><circle cx="431.4" cy="448.5" r="3.0"/><circle cx="428.0" cy="418.8" r="3.0"/><circle cx="436.4" cy="419.9" r="3.0"/><circle cx="449.8" cy="437.6" r="3.0"/><circle cx="459.9" cy="563.9" r="3.0"/><circle cx="468.8" cy="423.2" r="3.0"/><circle cx="427.8" cy="419.0" r="3.0"/><circle cx="426.6" cy="415.1" r="3.0"/><circle cx="450.7" cy="342.3" r="3.0"/><circle cx="475.3" cy="468.2" r="3.0"/><circle cx="348.5" cy="403.2" r="3.0"/><circle cx="408.4" cy="412.7" r="3.0"/><circle cx="353.6" cy="403.1" r="3.0"/><circle cx="394.4" cy="390.1" r="3.0"/><circle cx="478.1" cy="419.1" r="3.0"/><circle cx="400.5" cy="442.8" r="3.0"/><circle cx="447.8" cy="418.7" r="3.0"/><circle cx="407.0" cy="407.6" r="3.0"/><circle cx="415.5" cy="331.4" r="3.0"/><circle cx="428.0" cy="418.9" r="3.0"/><circle cx="475.4" cy="459.0" r="3.0"/><circle cx="363.2" cy="430.9" r="3.0"/><circle cx="379.8" cy="382.9" r="3.0"/><circle cx="352.9" cy="428.9" r="3.0"/><circle cx="398.0" cy="489.4" r="3.0"/><circle cx="324.1" cy="428.3" r="3.0"/><circle cx="364.9" cy="443.3" r="3.0"/><circle cx="396.7" cy="429.5" r="3.0"/><circle cx="424.5" cy="400.4" r="3.0"/><circle cx="461.6" cy="428.2" r="3.0"/><circle cx="437.8" cy="451.8" r="3.0"/><circle cx="432.7" cy="455.9" r="3.0"/><circle cx="430.8" cy="415.8" r="3.0"/><circle cx="425.7" cy="395.8" r="3.0"/><circle cx="428.1" cy="418.8" r="3.0"/><circle cx="432.1" cy="356.2" r="3.0"/><circle cx="423.4" cy="419.9" r="3.0"/><circle cx="434.7" cy="424.7" r="3.0"/><circle cx="427.9" cy="418.9" r="3.0"/><circle cx="428.0" cy="419.2" r="3.0"/><circle cx="404.6" cy="358.6" r="3.0"/><circle cx="529.9" cy="339.3" r="3.0"/><circle cx="381.5" cy="353.8" r="3.0"/><circle cx="425.6" cy="432.0" r="3.0"/><circle cx="428.6" cy="469.9" r="3.0"/><circle cx="427.5" cy="419.1" r="3.0"/><circle cx="457.2" cy="452.8" r="3.0"/><circle cx="488.4" cy="416.0" r="3.0"/><circle cx="437.8" cy="451.8" r="3.0"/><circle cx="441.4" cy="458.5" r="3.0"/><circle cx="425.4" cy="412.8" r="3.0"/><circle cx="432.6" cy="350.9" r="3.0"/><circle cx="392.1" cy="419.9" r="3.0"/><circle cx="371.8" cy="461.7" r="3.0"/><circle cx="570.8" cy="448.8" r="3.0"/><circle cx="448.0" cy="434.6" r="3.0"/><circle cx="426.1" cy="428.5" r="3.0"/><circle cx="465.9" cy="509.5" r="3.0"/><circle cx="404.3" cy="474.5" r="3.0"/><circle cx="460.0" cy="387.7" r="3.0"/><circle cx="475.5" cy="475.6" r="3.0"/><circle cx="443.4" cy="378.9" r="3.0"/><circle cx="363.5" cy="408.0" r="3.0"/><circle cx="418.7" cy="448.5" r="3.0"/><circle cx="439.7" cy="422.2" r="3.0"/><circle cx="428.2" cy="418.7" r="3.0"/><circle cx="429.1" cy="421.8" r="3.0"/><circle cx="428.6" cy="414.7" r="3.0"/><circle cx="437.5" cy="474.8" r="3.0"/><circle cx="447.1" cy="475.3" r="3.0"/><circle cx="412.1" cy="409.5" r="3.0"/><circle cx="412.5" cy="391.8" r="3.0"/><circle cx="428.1" cy="418.8" r="3.0"/><circle cx="496.3" cy="415.8" r="3.0"/><circle cx="430.7" cy="415.4" r="3.0"/><circle cx="409.6" cy="358.9" r="3.0"/><circle cx="427.9" cy="418.9" r="3.0"/><circle cx="391.2" cy="338.7" r="3.0"/><circle cx="394.3" cy="339.6" r="3.0"/><circle cx="456.2" cy="423.1" r="3.0"/><circle cx="308.6" cy="447.6" r="3.0"/><circle cx="415.8" cy="426.4" r="3.0"/><circle cx="457.5" cy="456.0" r="3.0"/><circle cx="481.5" cy="390.7" r="3.0"/><circle cx="484.7" cy="387.4" r="3.0"/><circle cx="367.5" cy="459.3" r="3.0"/><circle cx="352.9" cy="307.7" r="3.0"/><circle cx="453.1" cy="344.4" r="3.0"/><circle cx="415.4" cy="393.7" r="3.0"/><circle cx="508.3" cy="356.6" r="3.0"/><circle cx="428.1" cy="418.8" r="3.0"/><circle cx="460.1" cy="456.5" r="3.0"/><circle cx="376.3" cy="424.4" r="3.0"/><circle cx="428.0" cy="419.2" r="3.0"/><circle cx="430.9" cy="426.6" r="3.0"/><circle cx="527.1" cy="362.5" r="3.0"/><circle cx="418.2" cy="409.9" r="3.0"/><circle cx="476.6" cy="366.5" r="3.0"/><circle cx="439.5" cy="341.1" r="3.0"/><circle cx="428.7" cy="421.5" r="3.0"/><circle cx="502.8" cy="416.5" r="3.0"/><circle cx="458.7" cy="415.2" r="3.0"/><circle cx="405.2" cy="366.5" r="3.0"/><circle cx="435.0" cy="421.4" r="3.0"/><circle cx="410.9" cy="451.5" r="3.0"/><circle cx="408.5" cy="436.0" r="3.0"/><circle cx="412.7" cy="411.0" r="3.0"/><circle cx="377.4" cy="340.2" r="3.0"/><circle cx="424.7" cy="418.0" r="3.0"/><circle cx="394.7" cy="342.4" r="3.0"/><circle cx="428.4" cy="418.6" r="3.0"/><circle cx="428.2" cy="418.7" r="3.0"/><circle cx="353.1" cy="448.3" r="3.0"/><circle cx="437.3" cy="435.5" r="3.0"/><circle cx="367.7" cy="402.8" r="3.0"/><circle cx="410.6" cy="427.7" r="3.0"/><circle cx="547.4" cy="483.1" r="3.0"/><circle cx="396.8" cy="375.4" r="3.0"/><circle cx="426.3" cy="463.2" r="3.0"/><circle cx="427.6" cy="419.1" r="3.0"/><circle cx="394.0" cy="368.3" r="3.0"/><circle cx="431.0" cy="361.5" r="3.0"/><circle cx="413.9" cy="409.0" r="3.0"/><circle cx="427.8" cy="294.8" r="3.0"/><circle cx="426.1" cy="427.9" r="3.0"/><circle cx="375.5" cy="432.7" r="3.0"/><circle cx="452.2" cy="444.3" r="3.0"/><circle cx="472.4" cy="403.6" r="3.0"/><circle cx="427.9" cy="418.9" r="3.0"/><circle cx="332.1" cy="438.0" r="3.0"/><circle cx="320.1" cy="354.8" r="3.0"/><circle cx="428.2" cy="418.7" r="3.0"/><circle cx="464.2" cy="443.4" r="3.0"/><circle cx="384.9" cy="407.9" r="3.0"/><circle cx="394.0" cy="397.5" r="3.0"/><circle cx="357.3" cy="358.7" r="3.0"/><circle cx="389.2" cy="452.1" r="3.0"/><circle cx="427.8" cy="419.0" r="3.0"/><circle cx="483.9" cy="374.2" r="3.0"/><circle cx="376.8" cy="421.8" r="3.0"/><circle cx="472.8" cy="411.6" r="3.0"/><circle cx="407.3" cy="383.8" r="3.0"/><circle cx="455.6" cy="490.3" r="3.0"/><circle cx="401.8" cy="374.3" r="3.0"/><circle cx="403.1" cy="383.4" r="3.0"/><circle cx="427.4" cy="419.2" r="3.0"/><circle cx="458.9" cy="333.7" r="3.0"/><circle cx="411.6" cy="482.6" r="3.0"/><circle cx="406.7" cy="436.0" r="3.0"/><circle cx="427.5" cy="419.1" r="3.0"/><circle cx="401.2" cy="415.7" r="3.0"/></g>
	<g clip-path="url(#abplot)"><path class="gamut g1" d="M556.4,347.0L555.9,346.9L555.4,346.8L554.9,346.7L554.3,346.6L553.6,346.5L552.8,346.4L551.8,346.2L550.7,346.0L549.5,345.8L548.2,345.5L546.7,345.2L545.1,344.9L543.3,344.6L541.5,344.3L539.5,343.9L537.4,343.5L535.2,343.1L532.8,342.6L530.4,342.2L527.8,341.7L525.2,341.1L522.5,340.6L519.6,340.0L516.7,339.4L513.8,338.8L510.7,338.2L507.6,337.6L504.4,336.9L501.2,336.2L498.0,335.5L494.6,334.8L491.3,334.0L487.9,333.3L484.5,332.5L481.1,331.7L477.6,330.9L474.2,330.1L470.7,329.3L467.2,328.5L463.7,327.6L460.3,326.8L456.8,325.9L453.3,325.0L449.8,324.1L446.4,323.2L443.0,322.3L439.5,321.4L436.1,320.5L432.7,319.5L429.3,318.6L426.0,317.6L422.7,316.7L419.3,315.7L416.1,314.8L412.8,313.8L409.6,312.8L406.3,311.8L403.2,310.8L400.0,309.8L396.9,308.8L393.8,307.8L390.7,306.8L387.6,305.8L384.6,304.8L382.1,305.2L379.6,305.5L377.1,305.9L374.6,306.2L372.2,306.5L369.7,306.9L367.3,307.2L364.9,307.5L362.5,307.8L360.1,308.1L357.8,308.4L355.5,308.7L353.2,309.0L350.9,309.3L348.6,309.5L346.4,309.8L344.2,310.1L342.1,310.3L339.9,310.6L337.8,310.8L335.8,311.1L333.8,311.3L331.8,311.5L329.8,311.7L327.9,312.0L326.0,312.2L324.2,312.4L322.4,312.6L320.7,312.8L319.0,313.0L317.3,313.1L315.7,313.3L314.1,313.5L312.6,313.6L311.2,313.8L309.7,313.9L308.4,314.1L307.1,314.2L305.8,314.3L304.6,314.5L303.4,314.6L302.3,314.7L301.2,314.8L300.2,314.9L299.3,315.0L298.4,315.1L297.5,315.2L296.7,315.3L296.0,315.3L295.3,315.4L294.7,315.5L294.1,315.5L293.5,315.6L293.0,315.6L292.6,315.7L292.2,315.7L291.8,315.7L291.5,315.8L291.2,315.8L291.0,315.8L290.8,315.8L290.7,315.9L290.5,315.9L290.3,315.9L290.5,316.1L290.6,316.4L290.7,316.6L290.8,317.0L291.0,317.3L291.2,317.8L291.4,318.3L291.7,318.8L291.9,319.5L292.3,320.2L292.6,321.0L293.0,321.8L293.4,322.8L293.8,323.8L294.3,324.9L294.8,326.0L295.4,327.3L295.9,328.6L296.5,330.0L297.2,331.4L297.8,333.0L298.5,334.6L299.2,336.3L300.0,338.0L300.7,339.8L301.5,341.7L302.3,343.6L303.2,345.6L304.0,347.7L304.9,349.8L305.8,352.0L306.7,354.2L307.7,356.5L308.6,358.8L309.6,361.2L310.6,363.6L311.6,366.0L312.6,368.5L313.6,371.1L314.6,373.7L315.6,376.3L316.7,379.0L317.7,381.6L318.7,384.4L319.8,387.1L320.8,389.9L321.9,392.7L322.9,395.5L324.0,398.4L325.0,401.2L326.1,404.1L327.1,407.0L328.2,409.9L329.2,412.9L330.3,415.8L331.3,418.8L332.3,421.8L333.3,424.8L334.4,427.8L335.4,430.8L336.4,433.8L337.4,436.8L338.3,439.8L339.3,442.9L341.3,445.6L343.3,448.4L345.3,451.2L347.3,454.1L349.3,456.9L351.3,459.8L353.3,462.7L355.2,465.6L357.2,468.6L359.2,471.5L361.1,474.5L363.0,477.5L365.0,480.5L366.9,483.5L368.8,486.5L370.7,489.6L372.5,492.6L374.4,495.7L376.2,498.8L378.0,501.9L379.7,505.0L381.5,508.1L383.2,511.2L384.9,514.3L386.5,517.5L388.1,520.6L389.7,523.7L391.2,526.8L392.7,529.9L394.1,533.0L395.5,536.0L396.8,539.1L398.0,542.1L399.2,545.1L400.4,548.1L401.4,551.0L402.4,553.9L403.4,556.7L404.2,559.6L405.0,562.3L405.7,565.0L406.3,567.6L406.9,570.2L407.3,572.7L407.7,575.1L408.1,577.4L408.3,579.7L408.5,581.8L408.6,583.8L408.7,585.8L408.7,587.6L408.7,589.3L408.6,590.9L408.5,592.4L408.4,593.7L408.2,594.9L408.1,596.0L407.9,597.0L407.8,597.8L407.6,598.6L407.5,599.2L407.4,599.7L407.3,600.2L407.2,600.7L408.0,600.5L408.9,600.4L409.7,600.2L410.8,600.0L412.0,599.7L413.4,599.4L415.0,599.1L416.8,598.7L418.8,598.3L421.0,597.8L423.4,597.3L425.9,596.7L428.6,596.1L431.4,595.5L434.4,594.7L437.5,594.0L440.7,593.2L444.0,592.3L447.4,591.4L450.9,590.4L454.4,589.4L458.0,588.4L461.6,587.3L465.3,586.1L469.0,585.0L472.6,583.7L476.3,582.5L480.0,581.2L483.7,579.8L487.3,578.4L490.9,577.0L494.5,575.6L498.1,574.1L501.6,572.6L505.1,571.0L508.6,569.4L512.0,567.8L515.3,566.2L518.6,564.6L521.9,562.9L525.1,561.2L528.2,559.4L531.3,557.7L534.4,555.9L537.4,554.1L540.3,552.3L543.2,550.5L546.1,548.7L548.9,546.9L551.6,545.0L554.3,543.1L556.9,541.2L559.5,539.3L562.1,537.4L564.6,535.5L567.0,533.6L569.5,531.7L571.8,529.8L574.2,527.8L576.5,525.9L578.7,524.0L580.9,522.0L583.1,520.1L585.2,518.1L585.5,515.0L585.7,511.9L585.8,508.7L586.0,505.5L586.1,502.3L586.1,499.1L586.2,495.9L586.2,492.7L586.2,489.5L586.1,486.2L586.1,482.9L585.9,479.6L585.8,476.4L585.6,473.0L585.4,469.7L585.1,466.4L584.8,463.1L584.5,459.7L584.2,456.4L583.8,453.0L583.4,449.7L582.9,446.3L582.4,443.0L581.9,439.6L581.4,436.3L580.8,432.9L580.2,429.6L579.6,426.2L578.9,422.9L578.2,419.6L577.5,416.3L576.8,413.1L576.0,409.8L575.2,406.6L574.4,403.5L573.6,400.3L572.8,397.2L572.0,394.2L571.1,391.2L570.3,388.3L569.4,385.4L568.6,382.6L567.7,379.8L566.9,377.2L566.1,374.6L565.3,372.1L564.5,369.7L563.7,367.4L563.0,365.2L562.3,363.1L561.6,361.2L560.9,359.3L560.3,357.6L559.8,356.0L559.2,354.6L558.7,353.2L558.3,352.1L557.9,351.0L557.6,350.1L557.3,349.3L557.0,348.6L556.8,348.1L556.6,347.6Z"/><path class="gamut g2" d="M578.0,335.9L577.5,335.8L576.9,335.7L576.4,335.6L575.8,335.5L575.0,335.3L574.1,335.1L573.1,334.9L571.9,334.7L570.6,334.4L569.2,334.1L567.6,333.8L565.8,333.5L564.0,333.1L562.0,332.7L559.8,332.2L557.5,331.8L555.1,331.3L552.5,330.8L549.9,330.2L547.1,329.6L544.2,329.0L541.1,328.4L538.0,327.7L534.8,327.0L531.4,326.3L528.0,325.6L524.5,324.8L520.9,324.0L517.3,323.2L513.6,322.4L509.8,321.6L506.0,320.7L502.1,319.8L498.1,318.9L494.2,318.0L490.1,317.1L486.1,316.1L482.0,315.2L477.9,314.2L473.8,313.2L469.7,312.2L465.6,311.2L461.4,310.1L457.3,309.1L453.1,308.0L449.0,307.0L444.8,305.9L440.7,304.8L436.6,303.7L432.5,302.6L428.4,301.5L424.3,300.4L420.2,299.3L416.1,298.2L412.1,297.1L408.1,295.9L404.1,294.8L400.1,293.6L396.2,292.5L392.3,291.3L388.4,290.2L384.5,289.0L380.7,287.8L376.9,286.6L373.6,287.1L370.4,287.4L367.2,287.8L364.0,288.2L360.9,288.6L357.7,289.0L354.6,289.3L351.4,289.7L348.3,290.1L345.2,290.4L342.1,290.7L339.1,291.1L336.0,291.4L333.0,291.7L330.1,292.0L327.1,292.4L324.2,292.7L321.3,293.0L318.5,293.2L315.6,293.5L312.9,293.8L310.1,294.1L307.4,294.3L304.8,294.6L302.2,294.8L299.6,295.1L297.1,295.3L294.7,295.5L292.3,295.8L289.9,296.0L287.6,296.2L285.4,296.4L283.2,296.6L281.1,296.8L279.1,296.9L277.1,297.1L275.2,297.3L273.3,297.4L271.6,297.6L269.8,297.7L268.2,297.9L266.6,298.0L265.1,298.1L263.7,298.2L262.4,298.4L261.1,298.5L259.9,298.6L258.7,298.6L257.7,298.7L256.7,298.8L255.7,298.9L254.9,299.0L254.1,299.0L253.4,299.1L252.8,299.1L252.2,299.2L251.7,299.2L251.2,299.2L250.8,299.3L250.5,299.3L250.2,299.3L250.0,299.3L249.8,299.4L249.5,299.4L249.7,299.7L249.8,300.0L250.0,300.4L250.2,300.8L250.4,301.2L250.7,301.8L251.0,302.4L251.3,303.2L251.7,304.0L252.1,304.9L252.6,305.9L253.1,307.0L253.7,308.2L254.2,309.5L254.9,310.9L255.6,312.3L256.3,313.9L257.0,315.6L257.8,317.3L258.6,319.1L259.5,321.0L260.4,323.0L261.3,325.1L262.3,327.2L263.3,329.4L264.3,331.7L265.3,334.0L266.4,336.5L267.5,339.0L268.6,341.5L269.8,344.1L270.9,346.8L272.1,349.5L273.3,352.2L274.5,355.0L275.7,357.9L276.9,360.8L278.1,363.7L279.4,366.6L280.6,369.6L281.9,372.7L283.1,375.7L284.4,378.8L285.6,381.9L286.9,385.1L288.1,388.2L289.4,391.4L290.7,394.6L291.9,397.8L293.2,401.1L294.4,404.3L295.6,407.6L296.9,410.8L298.1,414.1L299.3,417.4L300.5,420.7L301.7,424.0L302.9,427.3L304.1,430.6L305.3,433.9L306.4,437.2L307.6,440.5L308.7,443.8L309.8,447.1L312.3,450.1L314.8,453.1L317.3,456.1L319.8,459.2L322.3,462.2L324.8,465.3L327.2,468.4L329.7,471.5L332.2,474.6L334.6,477.7L337.0,480.9L339.5,484.0L341.9,487.2L344.3,490.4L346.6,493.5L349.0,496.7L351.3,499.9L353.7,503.1L356.0,506.3L358.2,509.5L360.5,512.7L362.7,515.9L364.9,519.1L367.0,522.3L369.1,525.4L371.2,528.6L373.3,531.7L375.3,534.9L377.2,538.0L379.1,541.1L380.9,544.2L382.7,547.2L384.5,550.2L386.1,553.2L387.8,556.1L389.3,559.0L390.8,561.9L392.2,564.7L393.6,567.4L394.8,570.1L396.0,572.7L397.2,575.2L398.2,577.7L399.2,580.1L400.1,582.4L400.9,584.6L401.7,586.7L402.4,588.8L403.0,590.7L403.6,592.5L404.0,594.2L404.5,595.8L404.9,597.3L405.2,598.7L405.5,600.0L405.7,601.1L405.9,602.1L406.1,603.0L406.2,603.8L406.3,604.5L406.4,605.0L406.5,605.5L406.5,606.0L406.6,606.4L407.6,606.2L408.5,606.1L409.5,605.9L410.7,605.7L412.1,605.4L413.7,605.1L415.5,604.8L417.6,604.4L419.9,603.9L422.4,603.5L425.1,602.9L428.0,602.3L431.0,601.7L434.3,601.0L437.7,600.2L441.2,599.4L444.8,598.6L448.6,597.7L452.4,596.7L456.4,595.8L460.4,594.7L464.4,593.6L468.5,592.5L472.6,591.3L476.8,590.1L481.0,588.8L485.1,587.5L489.3,586.1L493.5,584.7L497.6,583.3L501.7,581.8L505.8,580.3L509.8,578.7L513.8,577.1L517.8,575.5L521.7,573.9L525.5,572.2L529.3,570.5L533.1,568.8L536.8,567.0L540.4,565.2L544.0,563.4L547.6,561.6L551.1,559.7L554.5,557.8L557.8,556.0L561.1,554.0L564.4,552.1L567.6,550.2L570.7,548.2L573.8,546.2L576.9,544.3L579.8,542.3L582.8,540.3L585.6,538.2L588.5,536.2L591.3,534.2L594.0,532.1L596.7,530.1L599.3,528.0L602.0,526.0L604.5,523.9L607.0,521.9L609.5,519.8L609.8,516.5L610.0,513.3L610.3,510.0L610.4,506.6L610.6,503.3L610.7,499.9L610.8,496.6L610.8,493.2L610.8,489.8L610.8,486.4L610.7,482.9L610.6,479.5L610.5,476.0L610.3,472.5L610.1,469.0L609.9,465.5L609.6,462.0L609.3,458.5L608.9,454.9L608.5,451.4L608.1,447.8L607.6,444.3L607.1,440.7L606.6,437.2L606.0,433.6L605.4,430.0L604.7,426.5L604.1,422.9L603.3,419.4L602.6,415.8L601.8,412.3L601.0,408.8L600.2,405.3L599.4,401.9L598.5,398.4L597.6,395.0L596.7,391.7L595.8,388.4L594.8,385.1L593.9,381.9L592.9,378.7L592.0,375.7L591.0,372.6L590.1,369.7L589.2,366.9L588.3,364.1L587.4,361.4L586.5,358.9L585.6,356.5L584.8,354.1L584.0,351.9L583.3,349.9L582.6,347.9L581.9,346.1L581.3,344.5L580.7,343.0L580.2,341.7L579.7,340.5L579.3,339.4L579.0,338.5L578.7,337.8L578.5,337.1L578.2,336.5Z"/><path class="gamut g3" d="M619.0,333.3L619.0,333.3L618.9,333.3L618.7,333.3L618.4,333.2L618.0,333.1L617.5,333.0L616.8,332.9L615.9,332.7L615.0,332.5L613.8,332.3L612.5,332.1L611.0,331.8L609.4,331.5L607.6,331.1L605.6,330.7L603.4,330.3L601.1,329.8L598.5,329.3L595.9,328.8L593.0,328.2L590.0,327.6L586.8,327.0L583.5,326.4L580.0,325.7L576.4,324.9L572.6,324.2L568.7,323.4L564.7,322.6L560.5,321.8L556.2,320.9L551.9,320.0L547.4,319.1L542.8,318.2L538.1,317.2L533.3,316.2L528.4,315.2L523.5,314.2L518.5,313.2L513.4,312.1L508.3,311.1L503.2,310.0L497.9,308.9L492.7,307.7L487.4,306.6L482.0,305.5L476.7,304.3L471.3,303.1L465.9,301.9L460.5,300.8L455.1,299.6L449.7,298.3L444.2,297.1L438.8,295.9L433.3,294.7L427.9,293.4L422.5,292.2L417.1,290.9L411.7,289.7L406.3,288.4L400.9,287.1L395.6,285.8L390.2,284.6L384.9,283.3L379.6,282.0L374.9,282.4L370.2,282.8L365.5,283.2L360.8,283.7L356.0,284.1L351.3,284.4L346.6,284.8L341.9,285.2L337.2,285.6L332.5,286.0L327.8,286.3L323.2,286.7L318.5,287.0L313.9,287.4L309.3,287.7L304.7,288.0L300.2,288.3L295.7,288.7L291.2,289.0L286.8,289.3L282.4,289.5L278.1,289.8L273.9,290.1L269.6,290.4L265.5,290.6L261.4,290.9L257.4,291.1L253.5,291.3L249.6,291.6L245.8,291.8L242.1,292.0L238.5,292.2L235.0,292.4L231.6,292.6L228.3,292.8L225.1,292.9L222.0,293.1L219.1,293.3L216.2,293.4L213.5,293.6L210.9,293.7L208.4,293.8L206.0,293.9L203.8,294.1L201.7,294.2L199.7,294.3L197.8,294.3L196.1,294.4L194.5,294.5L193.1,294.6L191.8,294.6L190.6,294.7L189.5,294.8L188.6,294.8L187.7,294.8L187.0,294.9L186.4,294.9L185.9,294.9L185.6,294.9L185.3,295.0L185.1,295.0L184.9,295.0L184.9,295.0L184.9,295.0L184.9,295.0L184.9,295.0L184.9,295.2L185.0,295.4L185.1,295.6L185.3,296.0L185.5,296.4L185.7,297.0L186.0,297.6L186.3,298.3L186.7,299.2L187.1,300.1L187.6,301.2L188.1,302.4L188.7,303.7L189.3,305.1L189.9,306.6L190.6,308.2L191.4,309.9L192.1,311.8L193.0,313.7L193.8,315.8L194.7,317.9L195.7,320.1L196.6,322.5L197.6,324.9L198.6,327.4L199.7,330.0L200.8,332.6L201.9,335.4L203.0,338.2L204.2,341.1L205.3,344.0L206.5,347.0L207.7,350.1L208.9,353.2L210.1,356.4L211.3,359.6L212.5,362.9L213.7,366.2L215.0,369.5L216.2,372.9L217.4,376.3L218.6,379.8L219.8,383.3L221.0,386.8L222.2,390.3L223.4,393.8L224.6,397.4L225.8,401.0L226.9,404.6L228.1,408.2L229.2,411.8L230.3,415.5L231.4,419.1L232.5,422.8L233.6,426.5L234.6,430.1L235.6,433.8L236.7,437.5L237.7,441.2L238.6,444.9L239.6,448.5L240.5,452.2L243.8,455.5L247.0,458.8L250.2,462.1L253.4,465.5L256.6,468.8L259.8,472.2L263.0,475.6L266.1,479.0L269.2,482.5L272.3,485.9L275.4,489.4L278.5,492.8L281.5,496.3L284.5,499.8L287.4,503.3L290.3,506.8L293.2,510.4L296.1,513.9L298.8,517.4L301.6,521.0L304.2,524.5L306.9,528.0L309.4,531.5L311.9,535.1L314.3,538.6L316.6,542.1L318.9,545.5L321.1,549.0L323.1,552.4L325.1,555.9L326.9,559.2L328.7,562.6L330.3,565.9L331.8,569.2L333.2,572.4L334.5,575.5L335.6,578.6L336.6,581.7L337.4,584.6L338.1,587.5L338.7,590.3L339.1,593.0L339.4,595.6L339.5,598.2L339.5,600.6L339.4,602.9L339.1,605.0L338.8,607.1L338.4,609.0L337.9,610.8L337.3,612.4L336.7,613.9L336.1,615.3L335.5,616.5L334.9,617.5L334.4,618.5L333.9,619.2L333.5,619.9L333.1,620.4L332.8,620.8L332.6,621.1L332.5,621.2L332.4,621.3L332.4,621.3L332.5,621.3L333.0,621.3L333.9,621.2L335.4,621.1L337.4,620.9L340.1,620.6L343.4,620.3L347.3,620.0L351.7,619.5L356.7,619.0L362.1,618.4L368.0,617.8L374.3,617.1L380.8,616.3L387.7,615.4L394.7,614.5L401.9,613.4L409.2,612.4L416.6,611.2L424.0,610.0L431.4,608.7L438.9,607.4L446.2,606.0L453.5,604.5L460.7,603.0L467.9,601.4L474.9,599.7L481.8,598.0L488.5,596.3L495.2,594.5L501.7,592.7L508.1,590.8L514.3,588.8L520.4,586.9L526.4,584.9L532.2,582.8L537.9,580.7L543.4,578.6L548.8,576.5L554.1,574.3L559.3,572.1L564.3,569.9L569.2,567.6L574.0,565.3L578.7,563.0L583.3,560.7L587.8,558.4L592.2,556.1L596.4,553.7L600.6,551.3L604.7,549.0L608.7,546.6L612.6,544.2L616.5,541.8L620.2,539.4L623.9,536.9L627.5,534.5L631.0,532.1L634.5,529.7L637.9,527.2L641.2,524.8L644.5,522.4L647.7,520.0L650.9,517.5L651.2,513.9L651.5,510.2L651.7,506.5L651.9,502.8L652.0,499.1L652.1,495.4L652.1,491.7L652.1,487.9L652.1,484.1L652.0,480.4L651.9,476.6L651.7,472.8L651.5,468.9L651.2,465.1L650.9,461.3L650.5,457.5L650.1,453.6L649.7,449.8L649.2,445.9L648.7,442.1L648.1,438.3L647.5,434.4L646.9,430.6L646.2,426.8L645.5,423.0L644.8,419.2L644.0,415.4L643.2,411.7L642.3,408.0L641.5,404.3L640.6,400.6L639.7,397.0L638.7,393.4L637.8,389.9L636.8,386.4L635.8,383.0L634.9,379.6L633.9,376.3L632.9,373.1L631.9,370.0L630.9,367.0L630.0,364.0L629.0,361.2L628.1,358.5L627.2,355.9L626.4,353.4L625.5,351.0L624.7,348.8L624.0,346.7L623.3,344.8L622.6,343.0L622.0,341.4L621.5,339.9L621.0,338.6L620.6,337.5L620.2,336.5L619.9,335.6L619.6,334.9L619.4,334.4L619.2,333.9L619.1,333.6L619.0,333.4L619.0,333.3Z"/></g>
	<line class="gamut g1" x1="96.0" y1="96.0" x2="126.0" y2="96.0"/><text class="legend" x="135.0" y="102.0">sRGB</text><line class="gamut g2" x1="96.0" y1="126.0" x2="126.0" y2="126.0"/><text class="legend" x="135.0" y="132.0">P3</text><line class="gamut g3" x1="96.0" y1="156.0" x2="126.0" y2="156.0"/><text class="legend" x="135.0" y="162.0">BT.2020</text>
	<text class="atitle" x="426.0" y="819.0" text-anchor="middle">a</text>
	<text class="atitle" x="27.0" y="420.0" text-anchor="middle" transform="rotate(-90 27.0 420.0)">b</text>
</svg>
