<svg xmlns="http://www.w3.org/2000/svg" viewBox="0 0 560 560" width="560" height="560" font-family="system-ui, -apple-system, 'Segoe UI', sans-serif">
	<style>
		:root {
			--surface: #fcfcfb; --ink: #0b0b0b; --secondary: #52514e; --muted: #898781;
			--grid: #e1e0d9; --axis: #c3c2b7;
			--g1: #2a78d6; --g2: #008300; --g3: #4a3aa7;
		}
		@media (prefers-color-scheme: dark) {
			:root {
				--surface: #1a1a19; --ink: #ffffff; --secondary: #c3c2b7; --muted: #898781;
				--grid: #2c2c2a; --axis: #383835;
				--g1: #3987e5; --g2: #008300; --g3: #9085e9;
			}
		}
		.surface { fill: var(--surface); }
		.grid { stroke: var(--grid); stroke-width: 1; }
		.axis { stroke: var(--axis); stroke-width: 1; }
		.tick { fill: var(--muted); font-size: 12px; font-variant-numeric: tabular-nums; }
		circle { fill: var(--ink); }
		.gamut { fill: none; stroke-width: 2; }
		.gamut.g1 { stroke: var(--g1); }
		.gamut.g2 { stroke: var(--g2); }
		.gamut.g3 { stroke: var(--g3); }
		.title { fill: var(--ink); font-size: 15px; font-weight: 600; }
		.atitle { fill: var(--secondary); font-size: 13px; font-style: italic; }
		.legend { fill: var(--secondary); font-size: 12px; }
	</style>
	<rect class="surface" x="0" y="0" width="560" height="560"/>
	<text class="title" x="52" y="26">Base colors in Oklab (a-b), gamuts overlaid</text>
	<clipPath id="abplot"><rect x="52" y="48" width="464" height="464"/></clipPath>
	<line class="grid" x1="90.7" y1="48" x2="90.7" y2="512"/><line class="grid" x1="52" y1="473.3" x2="516" y2="473.3"/><text class="tick" x="90.7" y="528" text-anchor="middle">-0.5</text><text class="tick" x="44" y="477.3" text-anchor="end">-0.5</text><line class="grid" x1="284.0" y1="48" x2="284.0" y2="512"/><line class="grid" x1="52" y1="280.0" x2="516" y2="280.0"/><line class="grid" x1="477.3" y1="48" x2="477.3" y2="512"/><line class="grid" x1="52" y1="86.7" x2="516" y2="86.7"/><text class="tick" x="477.3" y="528" text-anchor="middle">0.5</text><text class="tick" x="44" y="90.7" text-anchor="end">0.5</text>
	<line class="axis" x1="284.0" y1="48" x2="284.0" y2="512"/><line class="axis" x1="52" y1="280.0" x2="516" y2="280.0"/>
	<g clip-path="url(#abplot)" fill-opacity="0.28"><circle cx="297.9" cy="251.5" r="2"/><circle cx="232.6" cy="268.6" r="2"/><circle cx="295.7" cy="246.6" r="2"/><circle cx="221.0" cy="266.0" r="2"/><circle cx="278.7" cy="213.7" r="2"/><circle cx="301.5" cy="276.5" r="2"/><circle cx="263.8" cy="230.9" r="2"/><circle cx="285.6" cy="279.1" r="2"/><circle cx="283.5" cy="294.7" r="2"/><circle cx="278.2" cy="253.1" r="2"/><circle cx="306.6" cy="292.0" r="2"/><circle cx="274.9" cy="220.5" r="2"/><circle cx="323.2" cy="239.8" r="2"/><circle cx="267.3" cy="288.8" r="2"/><circle cx="276.4" cy="249.4" r="2"/><circle cx="242.0" cy="355.6" r="2"/><circle cx="241.2" cy="271.0" r="2"/><circle cx="275.2" cy="313.5" r="2"/><circle cx="251.5" cy="323.9" r="2"/><circle cx="258.4" cy="226.6" r="2"/><circle cx="236.2" cy="228.2" r="2"/><circle cx="330.0" cy="314.7" r="2"/><circle cx="329.2" cy="264.3" r="2"/><circle cx="270.3" cy="253.0" r="2"/><circle cx="318.2" cy="282.6" r="2"/><circle cx="264.3" cy="261.1" r="2"/><circle cx="277.2" cy="265.5" r="2"/><circle cx="278.5" cy="281.3" r="2"/><circle cx="275.3" cy="256.6" r="2"/><circle cx="278.4" cy="261.5" r="2"/><circle cx="285.1" cy="279.4" r="2"/><circle cx="301.4" cy="336.1" r="2"/><circle cx="294.2" cy="295.0" r="2"/><circle cx="285.2" cy="279.3" r="2"/><circle cx="213.8" cy="274.3" r="2"/><circle cx="337.9" cy="252.1" r="2"/><circle cx="319.3" cy="282.6" r="2"/><circle cx="248.9" cy="303.9" r="2"/><circle cx="268.3" cy="255.3" r="2"/><circle cx="319.3" cy="228.7" r="2"/><circle cx="285.6" cy="279.1" r="2"/><circle cx="302.9" cy="254.4" r="2"/><circle cx="270.9" cy="272.7" r="2"/><circle cx="298.8" cy="237.2" r="2"/><circle cx="285.0" cy="279.4" r="2"/><circle cx="221.3" cy="279.6" r="2"/><circle cx="271.7" cy="273.4" r="2"/><circle cx="308.0" cy="343.8" r="2"/><circle cx="268.9" cy="286.1" r="2"/><circle cx="331.3" cy="252.1" r="2"/><circle cx="285.5" cy="279.1" r="2"/><circle cx="327.1" cy="297.5" r="2"/><circle cx="337.0" cy="306.6" r="2"/><circle cx="260.0" cy="277.8" r="2"/><circle cx="276.3" cy="281.9" r="2"/><circle cx="269.2" cy="296.6" r="2"/><circle cx="258.6" cy="218.8" r="2"/><circle cx="285.2" cy="279.3" r="2"/><circle cx="273.1" cy="226.0" r="2"/><circle cx="285.5" cy="282.3" r="2"/><circle cx="338.4" cy="325.3" r="2"/><circle cx="285.0" cy="279.4" r="2"/><circle cx="283.8" cy="285.2" r="2"/><circle cx="312.2" cy="262.1" r="2"/><circle cx="302.4" cy="305.1" r="2"/><circle cx="310.2" cy="259.8" r="2"/><circle cx="283.1" cy="245.6" r="2"/><circle cx="290.5" cy="274.7" r="2"/><circle cx="327.4" cy="261.4" r="2"/><circle cx="324.7" cy="283.2" r="2"/><circle cx="295.9" cy="277.1" r="2"/><circle cx="292.4" cy="325.6" r="2"/><circle cx="245.4" cy="259.2" r="2"/><circle cx="316.2" cy="218.1" r="2"/><circle cx="285.3" cy="322.6" r="2"/><circle cx="274.8" cy="283.0" r="2"/><circle cx="251.3" cy="216.0" r="2"/><circle cx="219.7" cy="259.0" r="2"/><circle cx="310.4" cy="321.7" r="2"/><circle cx="252.0" cy="271.8" r="2"/><circle cx="296.4" cy="260.2" r="2"/><circle cx="240.2" cy="283.3" r="2"/><circle cx="253.2" cy="278.4" r="2"/><circle cx="285.7" cy="279.0" r="2"/><circle cx="238.9" cy="305.2" r="2"/><circle cx="283.0" cy="278.7" r="2"/><circle cx="276.5" cy="231.0" r="2"/><circle cx="216.9" cy="307.2" r="2"/><circle cx="311.0" cy="251.9" r="2"/><circle cx="247.6" cy="273.4" r="2"/><circle cx="254.2" cy="323.7" r="2"/><circle cx="321.7" cy="291.5" r="2"/><circle cx="265.7" cy="240.1" r="2"/><circle cx="284.8" cy="246.7" r="2"/><circle cx="318.6" cy="238.6" r="2"/><circle cx="292.8" cy="281.0" r="2"/><circle cx="227.0" cy="265.4" r="2"/><circle cx="263.9" cy="273.4" r="2"/><circle cx="285.6" cy="279.1" r="2"/><circle cx="287.1" cy="282.7" r="2"/><circle cx="282.3" cy="282.5" r="2"/><circle cx="285.4" cy="279.2" r="2"/><circle cx="285.1" cy="279.3" r="2"/><circle cx="308.3" cy="271.5" r="2"/><circle cx="268.4" cy="268.6" r="2"/><circle cx="314.5" cy="242.8" r="2"/><circle cx="358.1" cy="313.7" r="2"/><circle cx="297.9" cy="281.7" r="2"/><circle cx="210.0" cy="281.3" r="2"/><circle cx="296.2" cy="280.8" r="2"/><circle cx="285.6" cy="279.1" r="2"/><circle cx="318.8" cy="293.7" r="2"/><circle cx="275.4" cy="240.2" r="2"/><circle cx="285.2" cy="279.3" r="2"/><circle cx="235.1" cy="258.8" r="2"/><circle cx="274.0" cy="290.6" r="2"/><circle cx="276.8" cy="270.4" r="2"/><circle cx="285.4" cy="278.0" r="2"/><circle cx="273.3" cy="261.6" r="2"/><circle cx="300.7" cy="232.0" r="2"/><circle cx="236.5" cy="266.9" r="2"/><circle cx="316.5" cy="294.4" r="2"/><circle cx="272.9" cy="301.9" r="2"/><circle cx="293.2" cy="225.2" r="2"/><circle cx="275.6" cy="275.1" r="2"/><circle cx="290.0" cy="285.4" r="2"/><circle cx="280.8" cy="279.6" r="2"/><circle cx="282.4" cy="276.1" r="2"/><circle cx="285.0" cy="290.6" r="2"/><circle cx="319.9" cy="352.4" r="2"/><circle cx="307.2" cy="220.9" r="2"/><circle cx="261.4" cy="264.3" r="2"/><circle cx="284.6" cy="279.7" r="2"/><circle cx="290.5" cy="235.7" r="2"/><circle cx="327.8" cy="287.6" r="2"/><circle cx="266.2" cy="279.9" r="2"/><circle cx="377.4" cy="315.1" r="2"/><circle cx="285.1" cy="279.3" r="2"/><circle cx="251.0" cy="284.0" r="2"/><circle cx="347.9" cy="261.9" r="2"/><circle cx="287.3" cy="322.5" r="2"/><circle cx="297.6" cy="273.8" r="2"/><circle cx="288.1" cy="287.9" r="2"/><circle cx="278.3" cy="275.8" r="2"/><circle cx="311.5" cy="263.4" r="2"/><circle cx="315.5" cy="328.2" r="2"/><circle cx="285.3" cy="279.2" r="2"/><circle cx="249.2" cy="261.3" r="2"/><circle cx="285.4" cy="279.2" r="2"/><circle cx="280.4" cy="300.5" r="2"/><circle cx="284.7" cy="274.8" r="2"/><circle cx="261.6" cy="286.5" r="2"/><circle cx="281.0" cy="265.9" r="2"/><circle cx="264.1" cy="276.0" r="2"/><circle cx="257.9" cy="261.4" r="2"/><circle cx="293.2" cy="257.1" r="2"/><circle cx="289.8" cy="286.1" r="2"/><circle cx="241.3" cy="238.0" r="2"/><circle cx="300.1" cy="328.6" r="2"/><circle cx="319.5" cy="265.1" r="2"/><circle cx="284.8" cy="253.8" r="2"/><circle cx="298.0" cy="359.5" r="2"/><circle cx="232.1" cy="243.9" r="2"/><circle cx="232.5" cy="236.0" r="2"/><circle cx="278.1" cy="280.7" r="2"/><circle cx="248.2" cy="295.1" r="2"/><circle cx="269.2" cy="206.6" r="2"/><circle cx="272.3" cy="239.5" r="2"/><circle cx="254.4" cy="315.3" r="2"/><circle cx="285.3" cy="279.3" r="2"/><circle cx="283.9" cy="279.2" r="2"/><circle cx="253.5" cy="307.1" r="2"/><circle cx="338.2" cy="237.7" r="2"/><circle cx="197.2" cy="276.5" r="2"/><circle cx="259.5" cy="302.8" r="2"/><circle cx="308.9" cy="234.6" r="2"/><circle cx="298.2" cy="264.2" r="2"/><circle cx="315.6" cy="288.3" r="2"/><circle cx="302.3" cy="304.6" r="2"/><circle cx="285.4" cy="279.2" r="2"/><circle cx="273.3" cy="280.2" r="2"/><circle cx="301.9" cy="292.3" r="2"/><circle cx="284.9" cy="279.5" r="2"/><circle cx="289.9" cy="317.6" r="2"/><circle cx="285.0" cy="279.4" r="2"/><circle cx="279.6" cy="304.9" r="2"/><circle cx="324.4" cy="291.8" r="2"/><circle cx="303.8" cy="294.4" r="2"/><circle cx="233.7" cy="280.6" r="2"/><circle cx="335.3" cy="265.4" r="2"/><circle cx="285.1" cy="279.4" r="2"/><circle cx="285.4" cy="279.2" r="2"/><circle cx="270.3" cy="276.1" r="2"/><circle cx="207.9" cy="300.6" r="2"/><circle cx="242.5" cy="272.9" r="2"/><circle cx="289.2" cy="277.3" r="2"/><circle cx="252.9" cy="309.5" r="2"/><circle cx="279.8" cy="269.8" r="2"/><circle cx="285.1" cy="279.4" r="2"/><circle cx="284.9" cy="279.5" r="2"/><circle cx="289.3" cy="315.1" r="2"/><circle cx="262.2" cy="273.0" r="2"/><circle cx="304.8" cy="342.0" r="2"/><circle cx="249.8" cy="295.0" r="2"/><circle cx="286.6" cy="262.4" r="2"/><circle cx="294.5" cy="313.2" r="2"/><circle cx="349.0" cy="327.9" r="2"/><circle cx="266.4" cy="293.6" r="2"/><circle cx="336.3" cy="343.1" r="2"/><circle cx="292.3" cy="212.5" r="2"/><circle cx="277.2" cy="323.1" r="2"/><circle cx="200.9" cy="273.6" r="2"/><circle cx="293.4" cy="283.7" r="2"/><circle cx="342.2" cy="257.0" r="2"/><circle cx="265.5" cy="353.8" r="2"/><circle cx="294.7" cy="273.4" r="2"/><circle cx="344.6" cy="243.0" r="2"/><circle cx="262.6" cy="256.7" r="2"/><circle cx="309.2" cy="238.7" r="2"/><circle cx="256.2" cy="262.2" r="2"/><circle cx="298.2" cy="249.8" r="2"/><circle cx="283.7" cy="268.2" r="2"/><circle cx="291.6" cy="282.8" r="2"/><circle cx="232.2" cy="215.4" r="2"/><circle cx="285.0" cy="279.4" r="2"/><circle cx="343.5" cy="236.4" r="2"/><circle cx="281.6" cy="320.2" r="2"/><circle cx="305.9" cy="302.2" r="2"/><circle cx="285.4" cy="279.2" r="2"/><circle cx="285.1" cy="279.4" r="2"/><circle cx="276.7" cy="214.1" r="2"/><circle cx="317.8" cy="227.4" r="2"/><circle cx="251.2" cy="285.9" r="2"/><circle cx="278.1" cy="245.2" r="2"/><circle cx="249.7" cy="271.2" r="2"/><circle cx="264.4" cy="283.8" r="2"/><circle cx="256.5" cy="287.9" r="2"/><circle cx="273.6" cy="245.7" r="2"/><circle cx="365.7" cy="324.3" r="2"/><circle cx="287.8" cy="256.3" r="2"/><circle cx="301.3" cy="239.1" r="2"/><circle cx="314.6" cy="281.4" r="2"/><circle cx="304.8" cy="256.5" r="2"/><circle cx="254.5" cy="318.9" r="2"/><circle cx="296.9" cy="267.9" r="2"/><circle cx="267.5" cy="273.9" r="2"/><circle cx="283.0" cy="289.1" r="2"/><circle cx="285.5" cy="279.1" r="2"/><circle cx="363.9" cy="318.0" r="2"/><circle cx="277.3" cy="264.6" r="2"/><circle cx="230.1" cy="278.5" r="2"/><circle cx="268.7" cy="285.3" r="2"/><circle cx="299.6" cy="260.3" r="2"/><circle cx="323.3" cy="246.5" r="2"/><circle cx="285.2" cy="281.3" r="2"/><circle cx="370.6" cy="336.1" r="2"/><circle cx="284.2" cy="238.3" r="2"/><circle cx="272.3" cy="306.8" r="2"/><circle cx="227.0" cy="330.0" r="2"/><circle cx="268.2" cy="277.0" r="2"/><circle cx="299.7" cy="261.3" r="2"/><circle cx="267.3" cy="298.3" r="2"/><circle cx="288.2" cy="219.3" r="2"/><circle cx="321.4" cy="313.7" r="2"/><circle cx="307.8" cy="306.8" r="2"/><circle cx="286.7" cy="280.1" r="2"/><circle cx="289.6" cy="277.2" r="2"/><circle cx="254.5" cy="266.6" r="2"/><circle cx="292.5" cy="328.6" r="2"/><circle cx="283.6" cy="277.2" r="2"/><circle cx="258.5" cy="274.5" r="2"/><circle cx="298.4" cy="286.8" r="2"/><circle cx="333.6" cy="267.1" r="2"/><circle cx="285.3" cy="279.0" r="2"/><circle cx="233.2" cy="248.3" r="2"/><circle cx="292.2" cy="312.3" r="2"/><circle cx="257.5" cy="315.3" r="2"/><circle cx="302.3" cy="302.9" r="2"/><circle cx="276.3" cy="342.7" r="2"/><circle cx="236.7" cy="243.0" r="2"/><circle cx="305.6" cy="215.3" r="2"/><circle cx="366.2" cy="271.0" r="2"/><circle cx="248.9" cy="244.3" r="2"/><circle cx="264.0" cy="285.4" r="2"/><circle cx="296.2" cy="307.8" r="2"/><circle cx="276.2" cy="282.5" r="2"/><circle cx="255.5" cy="212.2" r="2"/><circle cx="216.4" cy="227.7" r="2"/><circle cx="321.5" cy="325.9" r="2"/><circle cx="270.0" cy="279.9" r="2"/><circle cx="285.1" cy="279.4" r="2"/><circle cx="349.6" cy="293.0" r="2"/><circle cx="285.2" cy="279.3" r="2"/><circle cx="267.1" cy="210.6" r="2"/><circle cx="290.7" cy="241.2" r="2"/><circle cx="297.2" cy="250.1" r="2"/><circle cx="314.1" cy="282.2" r="2"/><circle cx="267.6" cy="297.3" r="2"/><circle cx="285.5" cy="279.1" r="2"/><circle cx="292.8" cy="226.8" r="2"/><circle cx="322.6" cy="256.0" r="2"/><circle cx="274.0" cy="275.0" r="2"/><circle cx="289.6" cy="272.3" r="2"/><circle cx="284.7" cy="279.6" r="2"/><circle cx="344.3" cy="314.7" r="2"/><circle cx="288.0" cy="305.4" r="2"/><circle cx="242.6" cy="296.7" r="2"/><circle cx="284.9" cy="279.5" r="2"/><circle cx="335.0" cy="262.1" r="2"/><circle cx="285.4" cy="279.2" r="2"/><circle cx="275.6" cy="277.7" r="2"/><circle cx="291.8" cy="261.8" r="2"/><circle cx="270.6" cy="284.0" r="2"/><circle cx="355.6" cy="290.4" r="2"/><circle cx="329.8" cy="247.0" r="2"/><circle cx="233.4" cy="256.6" r="2"/><circle cx="227.9" cy="287.4" r="2"/><circle cx="343.0" cy="276.9" r="2"/><circle cx="305.6" cy="247.3" r="2"/><circle cx="346.4" cy="315.3" r="2"/><circle cx="277.6" cy="285.7" r="2"/><circle cx="312.7" cy="243.1" r="2"/><circle cx="321.0" cy="285.0" r="2"/><circle cx="285.6" cy="279.1" r="2"/><circle cx="266.6" cy="280.0" r="2"/><circle cx="258.1" cy="335.6" r="2"/><circle cx="211.0" cy="270.4" r="2"/><circle cx="250.4" cy="289.4" r="2"/><circle cx="283.4" cy="226.0" r="2"/><circle cx="290.4" cy="287.2" r="2"/><circle cx="334.8" cy="287.8" r="2"/><circle cx="303.2" cy="294.5" r="2"/><circle cx="191.4" cy="299.4" r="2"/><circle cx="269.7" cy="260.2" r="2"/><circle cx="285.5" cy="279.2" r="2"/><circle cx="299.3" cy="296.3" r="2"/><circle cx="277.5" cy="233.7" r="2"/><circle cx="263.6" cy="232.7" r="2"/><circle cx="297.8" cy="252.0" r="2"/><circle cx="239.3" cy="225.1" r="2"/><circle cx="289.1" cy="263.6" r="2"/><circle cx="222.5" cy="258.5" r="2"/><circle cx="273.1" cy="292.3" r="2"/><circle cx="305.5" cy="333.4" r="2"/><circle cx="247.6" cy="341.7" r="2"/><circle cx="321.4" cy="306.5" r="2"/><circle cx="287.9" cy="339.5" r="2"/><circle cx="284.6" cy="278.0" r="2"/><circle cx="277.6" cy="299.2" r="2"/><circle cx="304.6" cy="292.9" r="2"/><circle cx="269.7" cy="265.3" r="2"/><circle cx="285.3" cy="279.2" r="2"/><circle cx="297.1" cy="287.2" r="2"/><circle cx="245.9" cy="340.1" r="2"/><circle cx="267.1" cy="312.7" r="2"/><circle cx="299.5" cy="266.5" r="2"/><circle cx="275.0" cy="307.9" r="2"/><circle cx="279.2" cy="297.0" r="2"/><circle cx="309.4" cy="329.9" r="2"/><circle cx="317.1" cy="273.6" r="2"/><circle cx="292.5" cy="290.2" r="2"/><circle cx="285.1" cy="279.5" r="2"/><circle cx="276.6" cy="256.5" r="2"/><circle cx="311.2" cy="280.6" r="2"/><circle cx="257.6" cy="262.9" r="2"/><circle cx="302.2" cy="286.7" r="2"/><circle cx="236.9" cy="279.5" r="2"/><circle cx="306.8" cy="316.0" r="2"/><circle cx="248.3" cy="215.6" r="2"/><circle cx="352.8" cy="291.6" r="2"/><circle cx="266.4" cy="267.6" r="2"/><circle cx="326.2" cy="233.5" r="2"/><circle cx="285.2" cy="279.3" r="2"/><circle cx="303.4" cy="281.9" r="2"/><circle cx="285.5" cy="279.1" r="2"/><circle cx="237.3" cy="305.7" r="2"/><circle cx="240.0" cy="246.9" r="2"/><circle cx="267.7" cy="281.9" r="2"/><circle cx="293.1" cy="237.8" r="2"/><circle cx="285.5" cy="279.1" r="2"/><circle cx="324.2" cy="254.0" r="2"/><circle cx="237.0" cy="312.3" r="2"/><circle cx="280.5" cy="298.7" r="2"/><circle cx="339.7" cy="258.0" r="2"/><circle cx="253.5" cy="336.1" r="2"/><circle cx="284.9" cy="279.5" r="2"/><circle cx="270.9" cy="247.5" r="2"/><circle cx="285.4" cy="279.2" r="2"/><circle cx="303.3" cy="271.1" r="2"/><circle cx="275.4" cy="280.7" r="2"/><circle cx="338.0" cy="281.5" r="2"/><circle cx="285.4" cy="279.2" r="2"/><circle cx="297.4" cy="257.1" r="2"/><circle cx="285.1" cy="279.3" r="2"/><circle cx="285.0" cy="284.1" r="2"/><circle cx="265.1" cy="214.7" r="2"/><circle cx="290.6" cy="305.0" r="2"/><circle cx="286.3" cy="233.8" r="2"/><circle cx="294.2" cy="276.1" r="2"/><circle cx="247.1" cy="247.7" r="2"/><circle cx="271.0" cy="295.2" r="2"/><circle cx="322.2" cy="277.2" r="2"/><circle cx="279.1" cy="341.7" r="2"/><circle cx="275.6" cy="264.3" r="2"/><circle cx="285.7" cy="279.3" r="2"/><circle cx="293.1" cy="304.4" r="2"/><circle cx="285.4" cy="279.2" r="2"/><circle cx="266.8" cy="314.2" r="2"/><circle cx="323.9" cy="262.4" r="2"/><circle cx="247.9" cy="362.7" r="2"/><circle cx="284.0" cy="280.0" r="2"/><circle cx="290.8" cy="279.8" r="2"/><circle cx="285.4" cy="287.4" r="2"/><circle cx="284.8" cy="279.5" r="2"/><circle cx="260.7" cy="235.8" r="2"/><circle cx="254.7" cy="327.4" r="2"/><circle cx="285.4" cy="279.2" r="2"/><circle cx="292.3" cy="287.5" r="2"/><circle cx="328.6" cy="247.3" r="2"/><circle cx="305.1" cy="260.3" r="2"/><circle cx="272.2" cy="259.5" r="2"/><circle cx="257.6" cy="225.6" r="2"/><circle cx="345.7" cy="268.5" r="2"/><circle cx="298.1" cy="237.8" r="2"/><circle cx="330.5" cy="298.8" r="2"/><circle cx="276.1" cy="280.0" r="2"/><circle cx="327.9" cy="244.7" r="2"/><circle cx="309.4" cy="255.6" r="2"/><circle cx="337.4" cy="252.8" r="2"/><circle cx="285.3" cy="279.2" r="2"/><circle cx="303.2" cy="282.6" r="2"/><circle cx="282.0" cy="290.0" r="2"/><circle cx="280.7" cy="306.7" r="2"/><circle cx="327.4" cy="287.2" r="2"/><circle cx="278.3" cy="272.5" r="2"/><circle cx="213.2" cy="334.6" r="2"/><circle cx="239.1" cy="232.9" r="2"/><circle cx="306.7" cy="287.9" r="2"/><circle cx="320.8" cy="315.0" r="2"/><circle cx="276.8" cy="298.1" r="2"/><circle cx="287.6" cy="284.0" r="2"/><circle cx="301.1" cy="227.9" r="2"/><circle cx="277.8" cy="332.1" r="2"/><circle cx="282.7" cy="280.7" r="2"/><circle cx="312.8" cy="265.2" r="2"/><circle cx="289.1" cy="221.2" r="2"/><circle cx="227.9" cy="262.2" r="2"/><circle cx="327.5" cy="228.2" r="2"/><circle cx="285.3" cy="279.2" r="2"/><circle cx="285.0" cy="279.4" r="2"/><circle cx="293.7" cy="283.3" r="2"/><circle cx="270.5" cy="305.8" r="2"/><circle cx="253.7" cy="276.1" r="2"/><circle cx="255.9" cy="309.4" r="2"/><circle cx="238.8" cy="308.6" r="2"/><circle cx="268.4" cy="263.8" r="2"/><circle cx="287.6" cy="277.1" r="2"/><circle cx="285.0" cy="281.3" r="2"/><circle cx="284.8" cy="247.8" r="2"/><circle cx="285.2" cy="279.3" r="2"/><circle cx="276.5" cy="270.9" r="2"/><circle cx="285.3" cy="279.2" r="2"/><circle cx="318.4" cy="288.5" r="2"/><circle cx="284.8" cy="279.3" r="2"/><circle cx="270.3" cy="236.6" r="2"/><circle cx="285.4" cy="279.2" r="2"/><circle cx="357.0" cy="256.2" r="2"/><circle cx="253.3" cy="296.7" r="2"/><circle cx="252.6" cy="295.9" r="2"/><circle cx="319.7" cy="266.9" r="2"/><circle cx="321.3" cy="257.0" r="2"/><circle cx="318.1" cy="284.4" r="2"/><circle cx="282.6" cy="276.2" r="2"/><circle cx="278.8" cy="272.3" r="2"/><circle cx="292.6" cy="282.6" r="2"/><circle cx="320.2" cy="236.3" r="2"/><circle cx="273.1" cy="282.7" r="2"/><circle cx="288.7" cy="294.2" r="2"/><circle cx="274.0" cy="281.4" r="2"/><circle cx="295.2" cy="303.8" r="2"/><circle cx="267.8" cy="272.9" r="2"/><circle cx="278.8" cy="268.2" r="2"/><circle cx="281.2" cy="276.4" r="2"/><circle cx="268.2" cy="230.1" r="2"/><circle cx="259.5" cy="225.6" r="2"/><circle cx="244.4" cy="249.5" r="2"/><circle cx="285.4" cy="279.2" r="2"/><circle cx="281.4" cy="283.8" r="2"/><circle cx="285.6" cy="279.1" r="2"/><circle cx="249.0" cy="287.9" r="2"/><circle cx="285.1" cy="279.3" r="2"/><circle cx="219.8" cy="206.7" r="2"/><circle cx="287.0" cy="305.4" r="2"/><circle cx="285.5" cy="276.9" r="2"/><circle cx="267.8" cy="267.9" r="2"/><circle cx="285.3" cy="279.3" r="2"/><circle cx="282.9" cy="286.6" r="2"/><circle cx="350.5" cy="339.2" r="2"/><circle cx="301.2" cy="270.6" r="2"/><circle cx="289.3" cy="295.8" r="2"/><circle cx="282.9" cy="247.0" r="2"/><circle cx="277.2" cy="287.9" r="2"/><circle cx="285.2" cy="279.3" r="2"/><circle cx="272.3" cy="260.6" r="2"/><circle cx="325.1" cy="275.2" r="2"/><circle cx="259.5" cy="337.9" r="2"/><circle cx="313.5" cy="274.6" r="2"/><circle cx="287.9" cy="283.6" r="2"/><circle cx="272.2" cy="293.9" r="2"/><circle cx="282.8" cy="296.3" r="2"/><circle cx="225.0" cy="309.3" r="2"/><circle cx="298.5" cy="262.8" r="2"/><circle cx="266.1" cy="265.7" r="2"/><circle cx="325.1" cy="257.3" r="2"/><circle cx="285.3" cy="279.3" r="2"/><circle cx="285.7" cy="279.0" r="2"/><circle cx="306.0" cy="263.7" r="2"/><circle cx="277.6" cy="289.4" r="2"/><circle cx="324.1" cy="223.6" r="2"/><circle cx="281.5" cy="263.3" r="2"/><circle cx="279.8" cy="280.8" r="2"/><circle cx="302.5" cy="238.0" r="2"/><circle cx="260.7" cy="275.1" r="2"/><circle cx="285.0" cy="279.4" r="2"/><circle cx="285.3" cy="279.2" r="2"/><circle cx="284.9" cy="279.5" r="2"/><circle cx="278.8" cy="268.8" r="2"/><circle cx="268.4" cy="279.3" r="2"/><circle cx="198.7" cy="330.3" r="2"/><circle cx="311.7" cy="267.6" r="2"/><circle cx="285.2" cy="279.3" r="2"/><circle cx="228.8" cy="310.4" r="2"/><circle cx="270.8" cy="285.1" r="2"/><circle cx="262.6" cy="281.5" r="2"/><circle cx="257.8" cy="235.7" r="2"/><circle cx="224.4" cy="332.1" r="2"/><circle cx="287.4" cy="249.2" r="2"/><circle cx="302.0" cy="226.7" r="2"/><circle cx="282.3" cy="281.5" r="2"/><circle cx="275.7" cy="286.1" r="2"/><circle cx="293.5" cy="300.7" r="2"/><circle cx="229.9" cy="296.7" r="2"/><circle cx="263.1" cy="326.7" r="2"/><circle cx="291.0" cy="245.5" r="2"/><circle cx="230.3" cy="218.6" r="2"/><circle cx="347.8" cy="297.8" r="2"/><circle cx="279.8" cy="293.1" r="2"/><circle cx="315.4" cy="263.7" r="2"/><circle cx="316.3" cy="305.1" r="2"/><circle cx="311.9" cy="243.2" r="2"/><circle cx="306.2" cy="250.2" r="2"/><circle cx="284.6" cy="278.8" r="2"/><circle cx="213.1" cy="276.1" r="2"/><circle cx="310.9" cy="273.6" r="2"/><circle cx="243.0" cy="266.3" r="2"/><circle cx="263.5" cy="291.3" r="2"/><circle cx="305.0" cy="303.4" r="2"/><circle cx="329.6" cy="261.3" r="2"/><circle cx="290.3" cy="285.6" r="2"/><circle cx="274.5" cy="277.0" r="2"/><circle cx="278.7" cy="293.9" r="2"/><circle cx="267.5" cy="334.5" r="2"/><circle cx="299.0" cy="283.9" r="2"/><circle cx="277.1" cy="279.5" r="2"/><circle cx="286.2" cy="279.8" r="2"/><circle cx="285.8" cy="278.4" r="2"/><circle cx="246.9" cy="243.7" r="2"/><circle cx="275.6" cy="278.2" r="2"/><circle cx="236.1" cy="325.5" r="2"/><circle cx="268.0" cy="235.1" r="2"/><circle cx="257.9" cy="237.0" r="2"/><circle cx="255.7" cy="271.8" r="2"/><circle cx="278.2" cy="266.5" r="2"/><circle cx="276.4" cy="286.7" r="2"/><circle cx="305.6" cy="264.3" r="2"/><circle cx="252.1" cy="294.2" r="2"/><circle cx="257.9" cy="255.1" r="2"/><circle cx="279.2" cy="251.7" r="2"/><circle cx="285.6" cy="279.1" r="2"/><circle cx="306.0" cy="239.7" r="2"/><circle cx="227.0" cy="301.5" r="2"/><circle cx="261.7" cy="286.3" r="2"/><circle cx="285.2" cy="279.3" r="2"/><circle cx="275.1" cy="226.6" r="2"/><circle cx="364.2" cy="244.9" r="2"/><circle cx="297.9" cy="298.3" r="2"/><circle cx="208.4" cy="279.6" r="2"/><circle cx="313.5" cy="264.7" r="2"/><circle cx="260.1" cy="248.1" r="2"/><circle cx="278.4" cy="236.9" r="2"/><circle cx="281.9" cy="275.8" r="2"/><circle cx="317.5" cy="254.4" r="2"/><circle cx="335.4" cy="322.0" r="2"/><circle cx="294.8" cy="280.4" r="2"/><circle cx="298.1" cy="288.4" r="2"/><circle cx="234.3" cy="263.1" r="2"/><circle cx="257.6" cy="274.9" r="2"/><circle cx="297.4" cy="270.9" r="2"/><circle cx="313.6" cy="282.4" r="2"/><circle cx="232.2" cy="291.9" r="2"/><circle cx="264.0" cy="266.0" r="2"/><circle cx="263.4" cy="296.8" r="2"/><circle cx="282.5" cy="243.9" r="2"/><circle cx="296.7" cy="247.8" r="2"/><circle cx="304.2" cy="282.9" r="2"/><circle cx="186.6" cy="298.0" r="2"/><circle cx="285.0" cy="279.4" r="2"/><circle cx="285.6" cy="279.1" r="2"/><circle cx="328.6" cy="285.0" r="2"/><circle cx="271.6" cy="278.4" r="2"/><circle cx="334.5" cy="317.3" r="2"/><circle cx="308.9" cy="283.5" r="2"/><circle cx="307.4" cy="292.1" r="2"/><circle cx="285.1" cy="279.3" r="2"/><circle cx="284.9" cy="279.5" r="2"/><circle cx="332.1" cy="330.7" r="2"/><circle cx="280.9" cy="308.5" r="2"/><circle cx="298.4" cy="289.6" r="2"/><circle cx="257.7" cy="322.7" r="2"/><circle cx="292.2" cy="254.1" r="2"/><circle cx="291.3" cy="273.0" r="2"/><circle cx="285.3" cy="279.2" r="2"/><circle cx="292.4" cy="261.2" r="2"/><circle cx="291.6" cy="281.7" r="2"/><circle cx="284.9" cy="279.1" r="2"/><circle cx="278.7" cy="273.0" r="2"/><circle cx="225.2" cy="289.8" r="2"/><circle cx="370.1" cy="287.3" r="2"/><circle cx="291.6" cy="275.4" r="2"/><circle cx="267.4" cy="278.0" r="2"/><circle cx="240.7" cy="238.3" r="2"/><circle cx="260.2" cy="288.7" r="2"/><circle cx="285.2" cy="279.3" r="2"/><circle cx="274.7" cy="294.5" r="2"/><circle cx="329.4" cy="288.8" r="2"/><circle cx="288.1" cy="261.3" r="2"/><circle cx="286.5" cy="288.6" r="2"/><circle cx="249.0" cy="227.7" r="2"/><circle cx="276.5" cy="272.4" r="2"/><circle cx="323.1" cy="308.0" r="2"/><circle cx="285.0" cy="279.8" r="2"/><circle cx="285.6" cy="279.1" r="2"/><circle cx="285.8" cy="298.7" r="2"/><circle cx="284.6" cy="280.1" r="2"/><circle cx="272.9" cy="292.2" r="2"/><circle cx="182.9" cy="236.1" r="2"/><circle cx="289.1" cy="257.0" r="2"/><circle cx="293.7" cy="223.0" r="2"/><circle cx="254.5" cy="297.0" r="2"/><circle cx="307.2" cy="250.3" r="2"/><circle cx="284.2" cy="264.7" r="2"/><circle cx="178.5" cy="247.3" r="2"/><circle cx="267.7" cy="285.9" r="2"/><circle cx="285.2" cy="279.3" r="2"/><circle cx="288.5" cy="278.8" r="2"/><circle cx="288.5" cy="288.2" r="2"/><circle cx="302.9" cy="244.0" r="2"/><circle cx="285.5" cy="279.1" r="2"/><circle cx="247.0" cy="314.5" r="2"/><circle cx="271.1" cy="299.9" r="2"/><circle cx="226.5" cy="339.0" r="2"/><circle cx="355.5" cy="289.1" r="2"/><circle cx="339.4" cy="290.7" r="2"/><circle cx="268.0" cy="304.1" r="2"/><circle cx="272.5" cy="246.0" r="2"/><circle cx="261.0" cy="278.9" r="2"/><circle cx="272.0" cy="264.4" r="2"/><circle cx="229.4" cy="293.1" r="2"/><circle cx="274.2" cy="264.0" r="2"/><circle cx="290.5" cy="282.5" r="2"/><circle cx="285.3" cy="335.9" r="2"/><circle cx="285.9" cy="310.7" r="2"/><circle cx="195.1" cy="245.2" r="2"/><circle cx="383.6" cy="298.0" r="2"/><circle cx="260.6" cy="284.5" r="2"/><circle cx="297.1" cy="257.4" r="2"/><circle cx="270.8" cy="268.4" r="2"/><circle cx="335.8" cy="336.3" r="2"/><circle cx="346.1" cy="253.8" r="2"/><circle cx="271.6" cy="275.7" r="2"/><circle cx="277.9" cy="218.2" r="2"/><circle cx="300.0" cy="262.6" r="2"/><circle cx="289.4" cy="241.4" r="2"/><circle cx="289.4" cy="301.9" r="2"/><circle cx="269.6" cy="242.0" r="2"/><circle cx="308.1" cy="315.6" r="2"/><circle cx="285.1" cy="279.4" r="2"/><circle cx="301.4" cy="283.9" r="2"/><circle cx="266.0" cy="255.9" r="2"/><circle cx="292.4" cy="317.1" r="2"/><circle cx="269.1" cy="250.0" r="2"/><circle cx="285.2" cy="279.3" r="2"/><circle cx="347.6" cy="274.1" r="2"/><circle cx="285.4" cy="279.2" r="2"/><circle cx="285.0" cy="264.7" r="2"/><circle cx="303.6" cy="247.4" r="2"/><circle cx="237.7" cy="300.5" r="2"/><circle cx="235.4" cy="266.1" r="2"/><circle cx="259.0" cy="281.0" r="2"/><circle cx="288.1" cy="228.5" r="2"/><circle cx="255.9" cy="244.4" r="2"/><circle cx="285.4" cy="279.2" r="2"/><circle cx="205.5" cy="275.3" r="2"/><circle cx="262.0" cy="306.6" r="2"/><circle cx="230.3" cy="255.6" r="2"/><circle cx="327.1" cy="284.7" r="2"/><circle cx="285.3" cy="279.3" r="2"/><circle cx="267.7" cy="217.2" r="2"/><circle cx="301.0" cy="246.0" r="2"/><circle cx="285.3" cy="279.3" r="2"/><circle cx="307.8" cy="293.9" r="2"/><circle cx="262.7" cy="260.4" r="2"/><circle cx="282.0" cy="278.8" r="2"/><circle cx="278.9" cy="271.9" r="2"/><circle cx="311.0" cy="286.6" r="2"/><circle cx="322.9" cy="344.5" r="2"/><circle cx="282.5" cy="282.0" r="2"/><circle cx="310.8" cy="319.1" r="2"/><circle cx="281.2" cy="261.7" r="2"/><circle cx="285.3" cy="279.2" r="2"/><circle cx="238.5" cy="276.9" r="2"/><circle cx="253.0" cy="276.4" r="2"/><circle cx="284.8" cy="279.5" r="2"/><circle cx="294.7" cy="291.2" r="2"/><circle cx="324.2" cy="261.3" r="2"/><circle cx="203.3" cy="258.7" r="2"/><circle cx="348.1" cy="276.9" r="2"/><circle cx="291.9" cy="227.2" r="2"/><circle cx="292.1" cy="288.6" r="2"/><circle cx="250.2" cy="293.3" r="2"/><circle cx="288.3" cy="284.1" r="2"/><circle cx="263.8" cy="288.2" r="2"/><circle cx="294.8" cy="273.9" r="2"/><circle cx="230.3" cy="276.4" r="2"/><circle cx="304.6" cy="268.2" r="2"/><circle cx="205.8" cy="262.0" r="2"/><circle cx="276.8" cy="241.5" r="2"/><circle cx="274.1" cy="324.1" r="2"/><circle cx="235.0" cy="249.8" r="2"/><circle cx="343.4" cy="310.5" r="2"/><circle cx="285.4" cy="279.2" r="2"/><circle cx="259.6" cy="271.6" r="2"/><circle cx="310.3" cy="289.0" r="2"/><circle cx="283.3" cy="329.9" r="2"/><circle cx="303.0" cy="212.3" r="2"/><circle cx="347.9" cy="277.7" r="2"/><circle cx="285.0" cy="279.3" r="2"/><circle cx="303.3" cy="252.1" r="2"/><circle cx="311.3" cy="235.9" r="2"/><circle cx="222.3" cy="286.7" r="2"/><circle cx="245.4" cy="282.7" r="2"/><circle cx="274.6" cy="238.1" r="2"/><circle cx="295.8" cy="307.4" r="2"/><circle cx="306.7" cy="266.5" r="2"/><circle cx="304.6" cy="273.9" r="2"/><circle cx="285.5" cy="279.1" r="2"/><circle cx="307.3" cy="284.0" r="2"/><circle cx="298.5" cy="294.5" r="2"/><circle cx="232.5" cy="315.6" r="2"/><circle cx="395.6" cy="305.0" r="2"/><circle cx="253.9" cy="310.8" r="2"/><circle cx="280.8" cy="276.7" r="2"/><circle cx="314.5" cy="283.2" r="2"/><circle cx="310.6" cy="284.5" r="2"/><circle cx="273.1" cy="291.0" r="2"/><circle cx="284.0" cy="280.0" r="2"/><circle cx="284.8" cy="278.5" r="2"/><circle cx="239.2" cy="344.6" r="2"/><circle cx="290.6" cy="293.5" r="2"/><circle cx="241.3" cy="216.0" r="2"/><circle cx="250.9" cy="246.5" r="2"/><circle cx="291.7" cy="291.6" r="2"/><circle cx="307.8" cy="243.9" r="2"/><circle cx="286.2" cy="272.9" r="2"/><circle cx="298.9" cy="267.9" r="2"/><circle cx="218.5" cy="287.6" r="2"/><circle cx="369.4" cy="266.4" r="2"/><circle cx="322.5" cy="243.0" r="2"/><circle cx="262.1" cy="243.1" r="2"/><circle cx="311.9" cy="269.5" r="2"/><circle cx="259.6" cy="254.0" r="2"/><circle cx="293.4" cy="295.6" r="2"/><circle cx="293.2" cy="323.2" r="2"/><circle cx="284.4" cy="280.0" r="2"/><circle cx="281.4" cy="286.9" r="2"/><circle cx="252.8" cy="294.7" r="2"/><circle cx="288.5" cy="250.4" r="2"/><circle cx="286.1" cy="280.6" r="2"/><circle cx="264.8" cy="250.5" r="2"/><circle cx="371.7" cy="303.6" r="2"/><circle cx="278.5" cy="310.7" r="2"/><circle cx="211.0" cy="302.6" r="2"/><circle cx="260.0" cy="256.3" r="2"/><circle cx="260.2" cy="284.9" r="2"/><circle cx="315.6" cy="226.1" r="2"/><circle cx="244.1" cy="261.7" r="2"/><circle cx="359.4" cy="283.9" r="2"/><circle cx="285.9" cy="266.2" r="2"/><circle cx="279.3" cy="302.4" r="2"/><circle cx="283.4" cy="307.9" r="2"/><circle cx="314.1" cy="287.4" r="2"/><circle cx="299.1" cy="247.0" r="2"/><circle cx="213.6" cy="302.1" r="2"/><circle cx="250.6" cy="285.6" r="2"/><circle cx="267.3" cy="318.8" r="2"/><circle cx="244.5" cy="325.3" r="2"/><circle cx="288.3" cy="289.1" r="2"/><circle cx="354.4" cy="288.0" r="2"/><circle cx="299.6" cy="209.5" r="2"/><circle cx="287.4" cy="291.1" r="2"/><circle cx="338.3" cy="250.3" r="2"/><circle cx="249.8" cy="298.4" r="2"/><circle cx="324.0" cy="334.9" r="2"/><circle cx="324.4" cy="255.6" r="2"/><circle cx="240.4" cy="259.7" r="2"/><circle cx="285.4" cy="279.2" r="2"/><circle cx="286.1" cy="280.1" r="2"/><circle cx="307.5" cy="248.1" r="2"/><circle cx="284.8" cy="311.4" r="2"/><circle cx="296.0" cy="251.3" r="2"/><circle cx="325.3" cy="231.5" r="2"/><circle cx="309.8" cy="266.0" r="2"/><circle cx="291.6" cy="219.9" r="2"/><circle cx="331.2" cy="248.5" r="2"/><circle cx="302.1" cy="301.6" r="2"/><circle cx="274.2" cy="325.1" r="2"/><circle cx="310.7" cy="289.8" r="2"/><circle cx="285.2" cy="279.3" r="2"/><circle cx="307.9" cy="300.1" r="2"/><circle cx="193.8" cy="296.8" r="2"/><circle cx="294.6" cy="310.2" r="2"/><circle cx="271.3" cy="259.9" r="2"/><circle cx="275.0" cy="281.5" r="2"/><circle cx="288.9" cy="283.7" r="2"/><circle cx="285.2" cy="279.3" r="2"/><circle cx="285.3" cy="279.2" r="2"/><circle cx="297.0" cy="281.9" r="2"/><circle cx="287.9" cy="279.4" r="2"/><circle cx="276.6" cy="307.1" r="2"/><circle cx="236.9" cy="302.3" r="2"/><circle cx="245.3" cy="274.5" r="2"/><circle cx="281.0" cy="261.3" r="2"/><circle cx="309.7" cy="209.4" r="2"/><circle cx="261.7" cy="261.6" r="2"/><circle cx="295.2" cy="303.4" r="2"/><circle cx="247.6" cy="272.5" r="2"/><circle cx="285.2" cy="279.3" r="2"/><circle cx="323.2" cy="286.9" r="2"/><circle cx="299.5" cy="304.3" r="2"/><circle cx="287.6" cy="299.0" r="2"/><circle cx="285.3" cy="279.2" r="2"/><circle cx="290.9" cy="279.9" r="2"/><circle cx="299.9" cy="291.7" r="2"/><circle cx="306.6" cy="375.9" r="2"/><circle cx="312.6" cy="282.1" r="2"/><circle cx="285.2" cy="279.3" r="2"/><circle cx="284.4" cy="276.8" r="2"/><circle cx="300.5" cy="228.2" r="2"/><circle cx="316.9" cy="312.1" r="2"/><circle cx="232.3" cy="268.8" r="2"/><circle cx="272.3" cy="275.1" r="2"/><circle cx="235.7" cy="268.8" r="2"/><circle cx="262.9" cy="260.1" r="2"/><circle cx="318.7" cy="279.4" r="2"/><circle cx="267.0" cy="295.2" r="2"/><circle cx="298.5" cy="279.2" r="2"/><circle cx="271.4" cy="271.7" r="2"/><circle cx="277.0" cy="220.9" r="2"/><circle cx="285.3" cy="279.2" r="2"/><circle cx="317.0" cy="306.0" r="2"/><circle cx="242.1" cy="287.3" r="2"/><circle cx="253.2" cy="255.3" r="2"/><circle cx="235.3" cy="285.9" r="2"/><circle cx="265.3" cy="326.3" r="2"/><circle cx="216.1" cy="285.5" r="2"/><circle cx="243.3" cy="295.5" r="2"/><circle cx="264.5" cy="286.3" r="2"/><circle cx="283.0" cy="267.0" r="2"/><circle cx="307.7" cy="285.5" r="2"/><circle cx="291.9" cy="301.2" r="2"/><circle cx="288.5" cy="304.0" r="2"/><circle cx="287.2" cy="277.2" r="2"/><circle cx="283.8" cy="263.9" r="2"/><circle cx="285.4" cy="279.2" r="2"/><circle cx="288.1" cy="237.5" r="2"/><circle cx="282.3" cy="279.9" r="2"/><circle cx="289.8" cy="283.2" r="2"/><circle cx="285.3" cy="279.2" r="2"/><circle cx="285.4" cy="279.5" r="2"/><circle cx="269.8" cy="239.1" r="2"/><circle cx="353.2" cy="226.2" r="2"/><circle cx="254.3" cy="235.9" r="2"/><circle cx="283.7" cy="288.0" r="2"/><circle cx="285.7" cy="313.3" r="2"/><circle cx="285.0" cy="279.4" r="2"/><circle cx="304.8" cy="301.8" r="2"/><circle cx="325.6" cy="277.4" r="2"/><circle cx="291.9" cy="301.2" r="2"/><circle cx="294.3" cy="305.6" r="2"/><circle cx="283.6" cy="275.2" r="2"/><circle cx="288.4" cy="234.0" r="2"/><circle cx="261.4" cy="279.9" r="2"/><circle cx="247.9" cy="307.8" r="2"/><circle cx="380.5" cy="299.2" r="2"/><circle cx="298.7" cy="289.7" r="2"/><circle cx="284.1" cy="285.7" r="2"/><circle cx="310.6" cy="339.7" r="2"/><circle cx="269.5" cy="316.4" r="2"/><circle cx="306.6" cy="258.5" r="2"/><circle cx="317.0" cy="317.1" r="2"/><circle cx="295.6" cy="252.6" r="2"/><circle cx="242.3" cy="272.0" r="2"/><circle cx="279.1" cy="299.0" r="2"/><circle cx="293.1" cy="281.4" r="2"/><circle cx="285.5" cy="279.1" r="2"/><circle cx="286.1" cy="281.2" r="2"/><circle cx="285.7" cy="276.5" r="2"/><circle cx="291.7" cy="316.5" r="2"/><circle cx="298.1" cy="316.8" r="2"/><circle cx="274.7" cy="273.0" r="2"/><circle cx="275.0" cy="261.2" r="2"/><circle cx="285.4" cy="279.2" r="2"/><circle cx="330.9" cy="277.2" r="2"/><circle cx="287.1" cy="276.9" r="2"/><circle cx="273.1" cy="239.2" r="2"/><circle cx="285.2" cy="279.3" r="2"/><circle cx="260.8" cy="225.8" r="2"/><circle cx="262.9" cy="226.4" r="2"/><circle cx="304.1" cy="282.1" r="2"/><circle cx="205.7" cy="298.4" r="2"/><circle cx="277.2" cy="284.3" r="2"/><circle cx="305.0" cy="304.0" r="2"/><circle cx="321.0" cy="260.5" r="2"/><circle cx="323.1" cy="258.3" r="2"/><circle cx="245.0" cy="306.2" r="2"/><circle cx="235.3" cy="205.1" r="2"/><circle cx="302.1" cy="229.6" r="2"/><circle cx="277.0" cy="262.5" r="2"/><circle cx="338.9" cy="237.8" r="2"/><circle cx="285.4" cy="279.2" r="2"/><circle cx="306.7" cy="304.3" r="2"/><circle cx="250.9" cy="282.9" r="2"/><circle cx="285.3" cy="279.5" r="2"/><circle cx="287.3" cy="284.4" r="2"/><circle cx="351.4" cy="241.7" r="2"/><circle cx="278.8" cy="273.3" r="2"/><circle cx="317.7" cy="244.3" r="2"/><circle cx="293.0" cy="227.4" r="2"/><circle cx="285.8" cy="281.0" r="2"/><circle cx="335.2" cy="277.7" r="2"/><circle cx="305.8" cy="276.8" r="2"/><circle cx="270.1" cy="244.4" r="2"/><circle cx="290.0" cy="280.9" r="2"/><circle cx="273.9" cy="301.0" r="2"/><circle cx="272.3" cy="290.6" r="2"/><circle cx="275.1" cy="274.0" r="2"/><circle cx="251.6" cy="226.8" r="2"/><circle cx="283.1" cy="278.7" r="2"/><circle cx="263.1" cy="228.3" r="2"/><circle cx="285.6" cy="279.1" r="2"/><circle cx="285.5" cy="279.1" r="2"/><circle cx="235.4" cy="298.9" r="2"/><circle cx="291.5" cy="290.3" r="2"/><circle cx="245.1" cy="268.5" r="2"/><circle cx="273.8" cy="285.1" r="2"/><circle cx="365.0" cy="322.1" r="2"/><circle cx="264.5" cy="250.3" r="2"/><circle cx="284.2" cy="308.8" r="2"/><circle cx="285.1" cy="279.4" r="2"/><circle cx="262.7" cy="245.5" r="2"/><circle cx="287.3" cy="241.0" r="2"/><circle cx="275.9" cy="272.7" r="2"/><circle cx="285.2" cy="196.5" r="2"/><circle cx="284.1" cy="285.3" r="2"/><circle cx="250.3" cy="288.4" r="2"/><circle cx="301.5" cy="296.2" r="2"/><circle cx="314.9" cy="269.1" r="2"/><circle cx="285.3" cy="279.3" r="2"/><circle cx="221.4" cy="292.0" r="2"/><circle cx="213.4" cy="236.5" r="2"/><circle cx="285.5" cy="279.2" r="2"/><circle cx="309.5" cy="295.6" r="2"/><circle cx="256.6" cy="271.9" r="2"/><circle cx="262.7" cy="265.0" r="2"/><circle cx="238.2" cy="239.1" r="2"/><circle cx="259.5" cy="301.4" r="2"/><circle cx="285.2" cy="279.3" r="2"/><circle cx="322.6" cy="249.5" r="2"/><circle cx="251.2" cy="281.2" r="2"/><circle cx="315.2" cy="274.4" r="2"/><circle cx="271.5" cy="255.8" r="2"/><circle cx="303.7" cy="326.9" r="2"/><circle cx="267.9" cy="249.5" r="2"/><circle cx="268.7" cy="255.6" r="2"/><circle cx="284.9" cy="279.5" r="2"/><circle cx="306.0" cy="222.5" r="2"/><circle cx="274.4" cy="321.7" r="2"/><circle cx="271.2" cy="290.7" r="2"/><circle cx="285.0" cy="279.4" r="2"/><circle cx="267.5" cy="277.1" r="2"/></g>
	<g clip-path="url(#abplot)"><path class="gamut g1" d="M370.9,231.3L370.6,231.3L370.3,231.2L370.0,231.2L369.6,231.1L369.1,231.0L368.5,230.9L367.9,230.8L367.2,230.7L366.3,230.5L365.4,230.3L364.5,230.2L363.4,230.0L362.2,229.7L361.0,229.5L359.7,229.3L358.3,229.0L356.8,228.7L355.2,228.4L353.6,228.1L351.9,227.8L350.1,227.4L348.3,227.1L346.4,226.7L344.5,226.3L342.5,225.9L340.5,225.5L338.4,225.0L336.3,224.6L334.1,224.1L332.0,223.7L329.8,223.2L327.5,222.7L325.3,222.2L323.0,221.7L320.7,221.2L318.4,220.6L316.1,220.1L313.8,219.5L311.5,219.0L309.2,218.4L306.8,217.8L304.5,217.3L302.2,216.7L299.9,216.1L297.6,215.5L295.3,214.9L293.0,214.3L290.7,213.6L288.5,213.0L286.2,212.4L284.0,211.8L281.8,211.1L279.6,210.5L277.4,209.8L275.2,209.2L273.0,208.5L270.9,207.9L268.8,207.2L266.7,206.6L264.6,205.9L262.5,205.2L260.5,204.6L258.4,203.9L256.4,203.2L254.7,203.5L253.1,203.7L251.4,203.9L249.7,204.1L248.1,204.4L246.5,204.6L244.9,204.8L243.3,205.0L241.7,205.2L240.1,205.4L238.5,205.6L237.0,205.8L235.4,206.0L233.9,206.2L232.4,206.4L230.9,206.5L229.5,206.7L228.0,206.9L226.6,207.1L225.2,207.2L223.9,207.4L222.5,207.5L221.2,207.7L219.9,207.8L218.6,208.0L217.4,208.1L216.1,208.3L214.9,208.4L213.8,208.5L212.6,208.6L211.5,208.8L210.5,208.9L209.4,209.0L208.4,209.1L207.4,209.2L206.5,209.3L205.6,209.4L204.7,209.5L203.9,209.6L203.1,209.6L202.3,209.7L201.5,209.8L200.8,209.9L200.2,209.9L199.5,210.0L198.9,210.1L198.4,210.1L197.8,210.2L197.3,210.2L196.9,210.3L196.4,210.3L196.0,210.4L195.7,210.4L195.3,210.4L195.1,210.4L194.8,210.5L194.5,210.5L194.3,210.5L194.2,210.5L194.0,210.6L193.9,210.6L193.8,210.6L193.7,210.6L193.6,210.6L193.6,210.8L193.7,210.9L193.8,211.1L193.9,211.3L194.0,211.6L194.1,211.8L194.3,212.2L194.4,212.6L194.6,213.0L194.8,213.5L195.1,214.0L195.3,214.6L195.6,215.2L195.9,215.9L196.2,216.6L196.5,217.4L196.9,218.2L197.3,219.1L197.7,220.0L198.1,221.0L198.5,222.0L199.0,223.1L199.5,224.2L200.0,225.3L200.5,226.5L201.0,227.8L201.6,229.1L202.1,230.4L202.7,231.8L203.3,233.2L203.9,234.6L204.5,236.1L205.1,237.6L205.8,239.2L206.4,240.8L207.0,242.4L207.7,244.0L208.4,245.7L209.0,247.4L209.7,249.1L210.4,250.9L211.1,252.6L211.8,254.4L212.5,256.2L213.2,258.1L213.9,259.9L214.6,261.8L215.3,263.7L216.0,265.6L216.7,267.5L217.4,269.4L218.1,271.3L218.8,273.3L219.5,275.2L220.2,277.2L220.9,279.2L221.6,281.2L222.2,283.2L222.9,285.2L223.6,287.2L224.2,289.2L224.9,291.2L225.6,293.2L226.2,295.2L227.5,297.1L228.9,298.9L230.2,300.8L231.5,302.7L232.9,304.6L234.2,306.5L235.5,308.5L236.8,310.4L238.1,312.4L239.4,314.3L240.7,316.3L242.0,318.3L243.3,320.3L244.6,322.3L245.9,324.4L247.1,326.4L248.3,328.4L249.6,330.5L250.8,332.5L252.0,334.6L253.2,336.7L254.3,338.7L255.5,340.8L256.6,342.9L257.7,345.0L258.7,347.0L259.8,349.1L260.8,351.2L261.8,353.3L262.7,355.3L263.6,357.4L264.5,359.4L265.4,361.4L266.2,363.4L266.9,365.4L267.6,367.3L268.3,369.3L268.9,371.2L269.5,373.0L270.0,374.9L270.5,376.7L270.9,378.4L271.2,380.1L271.6,381.8L271.8,383.4L272.0,384.9L272.2,386.4L272.3,387.9L272.4,389.2L272.5,390.5L272.5,391.7L272.5,392.9L272.4,393.9L272.3,394.9L272.3,395.8L272.2,396.6L272.1,397.3L272.0,398.0L271.9,398.6L271.8,399.0L271.7,399.5L271.6,399.8L271.5,400.1L271.4,400.5L272.0,400.3L272.6,400.2L273.2,400.1L273.8,400.0L274.7,399.8L275.6,399.6L276.7,399.4L277.9,399.2L279.2,398.9L280.7,398.6L282.3,398.2L283.9,397.8L285.7,397.4L287.6,397.0L289.6,396.5L291.7,396.0L293.8,395.4L296.0,394.9L298.3,394.3L300.6,393.6L303.0,392.9L305.3,392.2L307.8,391.5L310.2,390.8L312.6,390.0L315.1,389.2L317.5,388.3L320.0,387.4L322.4,386.5L324.9,385.6L327.3,384.7L329.7,383.7L332.1,382.7L334.4,381.7L336.7,380.7L339.0,379.6L341.3,378.6L343.5,377.5L345.7,376.4L347.9,375.2L350.1,374.1L352.2,373.0L354.2,371.8L356.3,370.6L358.3,369.4L360.2,368.2L362.1,367.0L364.0,365.8L365.9,364.6L367.7,363.3L369.5,362.1L371.3,360.8L373.0,359.6L374.7,358.3L376.4,357.0L378.0,355.7L379.6,354.5L381.2,353.2L382.8,351.9L384.3,350.6L385.8,349.3L387.3,348.0L388.7,346.7L390.2,345.4L390.3,343.3L390.4,341.2L390.6,339.1L390.6,337.0L390.7,334.9L390.8,332.8L390.8,330.6L390.8,328.5L390.8,326.3L390.8,324.1L390.7,322.0L390.6,319.8L390.5,317.6L390.4,315.4L390.3,313.2L390.1,310.9L389.9,308.7L389.7,306.5L389.5,304.3L389.2,302.0L388.9,299.8L388.6,297.5L388.3,295.3L387.9,293.1L387.6,290.8L387.2,288.6L386.8,286.4L386.4,284.2L385.9,281.9L385.5,279.7L385.0,277.6L384.5,275.4L384.0,273.2L383.5,271.1L383.0,269.0L382.4,266.9L381.9,264.8L381.3,262.8L380.8,260.8L380.2,258.8L379.6,256.9L379.1,255.0L378.5,253.2L377.9,251.4L377.4,249.7L376.9,248.1L376.3,246.5L375.8,244.9L375.3,243.5L374.8,242.1L374.4,240.8L374.0,239.5L373.5,238.4L373.2,237.3L372.8,236.4L372.5,235.5L372.2,234.7L371.9,234.0L371.7,233.4L371.5,232.9L371.4,232.4L371.2,232.1L371.1,231.7Z"/><path class="gamut g2" d="M385.3,223.9L385.0,223.9L384.6,223.8L384.3,223.7L383.9,223.6L383.3,223.5L382.8,223.4L382.1,223.3L381.3,223.1L380.4,223.0L379.4,222.8L378.4,222.5L377.2,222.3L376.0,222.1L374.6,221.8L373.2,221.5L371.7,221.2L370.1,220.9L368.4,220.5L366.6,220.1L364.7,219.7L362.8,219.3L360.8,218.9L358.7,218.5L356.5,218.0L354.3,217.5L352.0,217.1L349.7,216.5L347.3,216.0L344.9,215.5L342.4,214.9L339.9,214.4L337.3,213.8L334.7,213.2L332.1,212.6L329.4,212.0L326.8,211.4L324.1,210.7L321.4,210.1L318.6,209.5L315.9,208.8L313.1,208.1L310.4,207.4L307.6,206.8L304.9,206.1L302.1,205.4L299.3,204.7L296.6,203.9L293.8,203.2L291.1,202.5L288.3,201.8L285.6,201.0L282.8,200.3L280.1,199.5L277.4,198.8L274.7,198.0L272.1,197.3L269.4,196.5L266.8,195.8L264.1,195.0L261.5,194.2L258.9,193.4L256.3,192.7L253.8,191.9L251.2,191.1L249.1,191.4L247.0,191.6L244.8,191.9L242.7,192.1L240.6,192.4L238.5,192.6L236.4,192.9L234.3,193.1L232.2,193.4L230.1,193.6L228.1,193.8L226.0,194.1L224.0,194.3L222.0,194.5L220.0,194.7L218.1,194.9L216.1,195.1L214.2,195.3L212.3,195.5L210.4,195.7L208.6,195.9L206.8,196.0L205.0,196.2L203.2,196.4L201.5,196.6L199.8,196.7L198.1,196.9L196.4,197.0L194.8,197.2L193.3,197.3L191.8,197.5L190.3,197.6L188.8,197.7L187.4,197.8L186.1,198.0L184.7,198.1L183.5,198.2L182.2,198.3L181.0,198.4L179.9,198.5L178.8,198.6L177.8,198.7L176.8,198.7L175.8,198.8L174.9,198.9L174.0,199.0L173.2,199.0L172.5,199.1L171.8,199.2L171.1,199.2L170.5,199.3L169.9,199.3L169.4,199.3L168.9,199.4L168.5,199.4L168.1,199.4L167.8,199.5L167.5,199.5L167.2,199.5L167.0,199.5L166.8,199.6L166.7,199.6L166.5,199.6L166.4,199.6L166.5,199.8L166.6,200.0L166.7,200.2L166.8,200.5L166.9,200.8L167.1,201.2L167.3,201.6L167.5,202.1L167.8,202.7L168.1,203.3L168.4,203.9L168.7,204.7L169.1,205.5L169.5,206.3L169.9,207.3L170.4,208.2L170.8,209.3L171.3,210.4L171.9,211.5L172.4,212.7L173.0,214.0L173.6,215.3L174.2,216.7L174.9,218.1L175.5,219.6L176.2,221.1L176.9,222.7L177.6,224.3L178.3,226.0L179.1,227.7L179.8,229.4L180.6,231.2L181.4,233.0L182.2,234.8L183.0,236.7L183.8,238.6L184.6,240.5L185.4,242.5L186.2,244.4L187.1,246.4L187.9,248.5L188.7,250.5L189.6,252.6L190.4,254.6L191.3,256.7L192.1,258.8L192.9,261.0L193.8,263.1L194.6,265.2L195.4,267.4L196.3,269.5L197.1,271.7L197.9,273.9L198.7,276.1L199.5,278.3L200.3,280.5L201.1,282.6L201.9,284.8L202.7,287.1L203.5,289.3L204.3,291.5L205.0,293.7L205.8,295.9L206.6,298.1L208.2,300.1L209.9,302.1L211.5,304.1L213.2,306.1L214.9,308.2L216.5,310.2L218.2,312.3L219.8,314.3L221.4,316.4L223.1,318.5L224.7,320.6L226.3,322.7L227.9,324.8L229.5,326.9L231.1,329.0L232.7,331.1L234.2,333.3L235.8,335.4L237.3,337.5L238.8,339.7L240.3,341.8L241.8,343.9L243.3,346.0L244.7,348.2L246.1,350.3L247.5,352.4L248.8,354.5L250.2,356.6L251.5,358.7L252.7,360.7L254.0,362.8L255.2,364.8L256.3,366.8L257.4,368.8L258.5,370.7L259.5,372.7L260.5,374.6L261.5,376.4L262.4,378.3L263.2,380.0L264.0,381.8L264.8,383.5L265.5,385.1L266.1,386.7L266.7,388.3L267.3,389.7L267.8,391.2L268.3,392.5L268.7,393.8L269.0,395.0L269.4,396.2L269.6,397.2L269.9,398.2L270.1,399.1L270.3,400.0L270.5,400.7L270.6,401.4L270.7,402.0L270.8,402.5L270.9,403.0L270.9,403.4L271.0,403.7L271.0,404.0L271.1,404.3L271.7,404.2L272.3,404.0L273.0,403.9L273.8,403.8L274.7,403.6L275.8,403.4L277.0,403.2L278.4,402.9L279.9,402.6L281.6,402.3L283.4,401.9L285.3,401.5L287.4,401.1L289.5,400.7L291.8,400.2L294.1,399.6L296.5,399.1L299.0,398.5L301.6,397.8L304.2,397.2L306.9,396.5L309.6,395.7L312.3,395.0L315.1,394.2L317.9,393.4L320.6,392.5L323.4,391.6L326.2,390.7L329.0,389.8L331.7,388.8L334.5,387.9L337.2,386.8L339.9,385.8L342.5,384.8L345.2,383.7L347.8,382.6L350.4,381.5L352.9,380.3L355.4,379.2L357.9,378.0L360.3,376.8L362.7,375.6L365.0,374.4L367.4,373.1L369.6,371.9L371.9,370.6L374.1,369.4L376.3,368.1L378.4,366.8L380.5,365.5L382.5,364.2L384.6,362.8L386.6,361.5L388.5,360.2L390.4,358.8L392.3,357.5L394.2,356.1L396.0,354.8L397.8,353.4L399.6,352.0L401.3,350.7L403.0,349.3L404.7,347.9L406.4,346.5L406.5,344.4L406.7,342.2L406.8,340.0L407.0,337.8L407.1,335.5L407.1,333.3L407.2,331.1L407.2,328.8L407.2,326.5L407.2,324.2L407.2,322.0L407.1,319.7L407.0,317.3L406.9,315.0L406.7,312.7L406.6,310.4L406.4,308.0L406.2,305.7L405.9,303.3L405.7,300.9L405.4,298.6L405.1,296.2L404.7,293.8L404.4,291.4L404.0,289.1L403.6,286.7L403.2,284.3L402.7,281.9L402.2,279.6L401.7,277.2L401.2,274.9L400.7,272.5L400.1,270.2L399.6,267.9L399.0,265.6L398.4,263.4L397.8,261.1L397.2,258.9L396.6,256.7L395.9,254.6L395.3,252.5L394.7,250.4L394.0,248.4L393.4,246.5L392.8,244.6L392.2,242.7L391.6,241.0L391.0,239.3L390.4,237.6L389.9,236.1L389.3,234.6L388.8,233.2L388.4,232.0L387.9,230.8L387.5,229.7L387.1,228.7L386.8,227.8L386.5,227.0L386.2,226.3L386.0,225.7L385.8,225.2L385.6,224.8L385.5,224.3Z"/><path class="gamut g3" d="M412.7,222.2L412.6,222.2L412.6,222.2L412.5,222.2L412.3,222.1L412.0,222.1L411.6,222.0L411.2,221.9L410.6,221.8L410.0,221.7L409.2,221.5L408.3,221.4L407.3,221.2L406.2,221.0L405.0,220.7L403.7,220.5L402.3,220.2L400.7,219.9L399.0,219.6L397.2,219.2L395.3,218.8L393.3,218.4L391.2,218.0L389.0,217.6L386.7,217.1L384.3,216.6L381.7,216.1L379.1,215.6L376.5,215.1L373.7,214.5L370.8,213.9L367.9,213.3L364.9,212.7L361.8,212.1L358.7,211.5L355.5,210.8L352.3,210.2L349.0,209.5L345.7,208.8L342.3,208.1L338.9,207.4L335.4,206.6L332.0,205.9L328.4,205.2L324.9,204.4L321.4,203.6L317.8,202.9L314.2,202.1L310.6,201.3L307.0,200.5L303.4,199.7L299.8,198.9L296.1,198.1L292.5,197.3L288.9,196.4L285.3,195.6L281.7,194.8L278.1,193.9L274.5,193.1L270.9,192.3L267.3,191.4L263.7,190.6L260.2,189.7L256.6,188.8L253.1,188.0L249.9,188.3L246.8,188.5L243.7,188.8L240.5,189.1L237.4,189.4L234.2,189.6L231.1,189.9L227.9,190.1L224.8,190.4L221.7,190.6L218.6,190.9L215.4,191.1L212.4,191.4L209.3,191.6L206.2,191.8L203.2,192.0L200.1,192.2L197.1,192.4L194.2,192.6L191.2,192.8L188.3,193.0L185.4,193.2L182.6,193.4L179.8,193.6L177.0,193.7L174.3,193.9L171.6,194.1L169.0,194.2L166.4,194.4L163.9,194.5L161.4,194.7L159.0,194.8L156.7,194.9L154.4,195.1L152.2,195.2L150.1,195.3L148.0,195.4L146.0,195.5L144.1,195.6L142.3,195.7L140.6,195.8L138.9,195.9L137.3,196.0L135.8,196.0L134.4,196.1L133.1,196.2L131.9,196.2L130.8,196.3L129.7,196.3L128.7,196.4L127.8,196.4L127.1,196.5L126.3,196.5L125.7,196.5L125.2,196.6L124.7,196.6L124.3,196.6L124.0,196.6L123.7,196.6L123.5,196.6L123.4,196.6L123.3,196.6L123.2,196.6L123.2,196.6L123.2,196.7L123.3,196.7L123.3,196.8L123.3,196.9L123.4,197.1L123.5,197.3L123.7,197.6L123.8,198.0L124.0,198.4L124.2,198.9L124.5,199.5L124.7,200.1L125.1,200.8L125.4,201.6L125.8,202.5L126.2,203.4L126.6,204.4L127.1,205.5L127.6,206.6L128.1,207.9L128.6,209.1L129.2,210.5L129.8,211.9L130.4,213.4L131.1,215.0L131.7,216.6L132.4,218.2L133.1,220.0L133.9,221.8L134.6,223.6L135.3,225.5L136.1,227.4L136.9,229.3L137.7,231.3L138.5,233.4L139.3,235.5L140.1,237.6L140.9,239.7L141.7,241.9L142.5,244.1L143.3,246.3L144.1,248.6L144.9,250.9L145.7,253.2L146.6,255.5L147.4,257.8L148.2,260.2L148.9,262.6L149.7,264.9L150.5,267.3L151.3,269.7L152.0,272.1L152.8,274.6L153.5,277.0L154.3,279.4L155.0,281.9L155.7,284.3L156.4,286.8L157.1,289.2L157.8,291.7L158.4,294.1L159.1,296.6L159.7,299.0L160.3,301.5L162.5,303.7L164.7,305.9L166.8,308.1L168.9,310.3L171.1,312.6L173.2,314.8L175.3,317.1L177.4,319.4L179.5,321.6L181.6,323.9L183.6,326.2L185.6,328.6L187.7,330.9L189.6,333.2L191.6,335.6L193.6,337.9L195.5,340.2L197.4,342.6L199.2,344.9L201.0,347.3L202.8,349.7L204.6,352.0L206.3,354.4L207.9,356.7L209.5,359.0L211.1,361.4L212.6,363.7L214.0,366.0L215.4,368.3L216.7,370.6L218.0,372.8L219.1,375.1L220.2,377.3L221.2,379.4L222.2,381.6L223.0,383.7L223.7,385.8L224.4,387.8L225.0,389.7L225.4,391.7L225.8,393.5L226.1,395.4L226.3,397.1L226.3,398.8L226.3,400.4L226.3,401.9L226.1,403.3L225.9,404.7L225.6,406.0L225.3,407.2L224.9,408.3L224.5,409.3L224.1,410.2L223.7,411.0L223.3,411.7L222.9,412.3L222.6,412.8L222.3,413.3L222.1,413.6L221.9,413.9L221.7,414.0L221.7,414.2L221.6,414.2L221.6,414.2L221.7,414.2L222.0,414.2L222.6,414.1L223.6,414.0L225.0,413.9L226.7,413.8L228.9,413.6L231.5,413.3L234.5,413.0L237.8,412.7L241.4,412.3L245.3,411.9L249.5,411.4L253.9,410.8L258.4,410.3L263.1,409.6L267.9,409.0L272.8,408.2L277.7,407.5L282.7,406.7L287.6,405.8L292.6,404.9L297.5,404.0L302.3,403.0L307.2,402.0L311.9,400.9L316.6,399.8L321.2,398.7L325.7,397.5L330.1,396.3L334.5,395.1L338.7,393.8L342.9,392.6L346.9,391.2L350.9,389.9L354.8,388.5L358.6,387.1L362.3,385.7L365.9,384.3L369.4,382.9L372.9,381.4L376.2,379.9L379.5,378.4L382.7,376.9L385.8,375.4L388.9,373.8L391.9,372.3L394.8,370.7L397.6,369.1L400.4,367.6L403.1,366.0L405.8,364.4L408.4,362.8L411.0,361.2L413.5,359.6L415.9,358.0L418.3,356.3L420.7,354.7L423.0,353.1L425.3,351.5L427.5,349.9L429.7,348.3L431.8,346.6L433.9,345.0L434.1,342.6L434.3,340.2L434.5,337.7L434.6,335.2L434.7,332.8L434.7,330.3L434.8,327.8L434.8,325.3L434.7,322.8L434.7,320.2L434.6,317.7L434.5,315.2L434.3,312.6L434.1,310.1L433.9,307.5L433.7,305.0L433.4,302.4L433.1,299.9L432.8,297.3L432.5,294.7L432.1,292.2L431.7,289.6L431.3,287.1L430.8,284.5L430.3,282.0L429.8,279.5L429.3,276.9L428.8,274.5L428.2,272.0L427.6,269.5L427.0,267.1L426.4,264.7L425.8,262.3L425.2,259.9L424.5,257.6L423.9,255.3L423.2,253.1L422.6,250.9L421.9,248.8L421.3,246.7L420.6,244.6L420.0,242.7L419.4,240.8L418.7,239.0L418.2,237.2L417.6,235.6L417.0,234.0L416.5,232.5L416.0,231.2L415.5,229.9L415.1,228.7L414.7,227.6L414.3,226.6L414.0,225.7L413.7,225.0L413.5,224.3L413.2,223.7L413.1,223.3L412.9,222.9L412.8,222.6L412.7,222.4L412.7,222.3L412.7,222.2Z"/></g>
	<line class="gamut g1" x1="64" y1="64" x2="84" y2="64"/><text class="legend" x="90" y="68">sRGB</text><line class="gamut g2" x1="64" y1="84" x2="84" y2="84"/><text class="legend" x="90" y="88">P3</text><line class="gamut g3" x1="64" y1="104" x2="84" y2="104"/><text class="legend" x="90" y="108">BT.2020</text>
	<text class="atitle" x="284.0" y="546" text-anchor="middle">a</text>
	<text class="atitle" x="18" y="280.0" text-anchor="middle" transform="rotate(-90 18 280.0)">b</text>
</svg>
